<mxfile host="65bd71144e" modified="2020-11-02T12:02:17.138Z" agent="5.0 (Windows NT 10.0; Win64; x64) AppleWebKit/537.36 (KHTML, like Gecko) Code/1.50.1 Chrome/83.0.4103.122 Electron/9.2.1 Safari/537.36" version="13.6.5" etag="8pAiWKt-_JU97Ce2aiRt">
    <diagram id="PHswgO9bgA-schIJiF1a" name="ページ1">
        <mxGraphModel dx="1193" dy="673" grid="1" gridSize="10" guides="1" tooltips="1" connect="1" arrows="1" fold="1" page="1" pageScale="1" pageWidth="1169" pageHeight="827" background="#ffffff" math="0" shadow="0">
            <root>
                <mxCell id="0"/>
                <mxCell id="1" parent="0"/>
                <mxCell id="20" value="" style="rounded=1;whiteSpace=wrap;html=1;fillColor=none;" vertex="1" parent="1">
                    <mxGeometry x="230" y="60" width="590" height="200" as="geometry"/>
                </mxCell>
                <mxCell id="2" value="" style="outlineConnect=0;dashed=0;verticalLabelPosition=bottom;verticalAlign=top;align=center;html=1;shape=mxgraph.aws3.ec2;fillColor=#F58534;gradientColor=none;" vertex="1" parent="1">
                    <mxGeometry x="481.75" y="340" width="76.5" height="93" as="geometry"/>
                </mxCell>
                <mxCell id="3" value="" style="shape=image;verticalLabelPosition=bottom;labelBackgroundColor=#ffffff;verticalAlign=top;aspect=fixed;imageAspect=0;image=data:image/png,iVBORw0KGgoAAAANSUhEUgAACLIAAAJZCAYAAAC3VY5FAAAACXBIWXMAABYlAAAWJQFJUiTwAAAgAElEQVR4nOzdX2hkaZon5vdUZVdvdTWkQhh2bDDSRBdjBi+bmmDBGFdMaq+8zA5kBGbp3atSVrfbMwt2qW3D2OCh1GZNG/ai1Ourmc7KVNmYZYiLVjF3e9NK1Ia+WFSZZpnBsK3OvBtsWpPJ1m5V/g1zsr6ojtSRlCEpQnH+PA+IzP5OZLXOdyJOnIjvd943Gw6HAQAAAAAAAAAA8/aaIwAAAAAAAAAAQBkIsgAAAAAAAAAAUAqCLAAAAAAAAAAAlIIgCwAAAAAAAAAApSDIAgAAAAAAAABAKQiyAAAAAAAAAABQCoIsAAAAAAAAAACUgiALAAAAAAAAAAClIMgCAAAAAAAAAEApCLJwKq1Bv2fGAAAAAAAAAIBZEGThtDZag/6yWQMAAAAAAAAApk2QhdO6EhFrZg0AAAAAAAAAmDZBFk4texz//eKt3pKZAwAAAAAAAACmSZCFibUG/ZX02LfiWfyxmQMAAAAAAAAApkmQhdNYyB87fONFVZZ3zRwAAAAAAAAAME2CLJzG8thjLy3e6N0wewAAAAAAAADAtAiycBq/DrK8HpE9jf/C7AEAAAAAAAAA0yLIwmmsjh6btxeKJ7Gw+FFv3QwCAAAAAAAAANMgyMJpLB9+bPYkPjCDAAAAAAAAAMA0CLIwkdagvxARS1899o3syz/zqiw/7v2eWQQAAAAAAAAAzkuQhUmtHvu4YfyzwhgAAAAAAAAAwCkJsjCpl4Isw0u//nv2KL61eLP3jpkEAAAAAAAAAM5DkIVJ9V563OFnztPYMpMAAAAAAAAAwHkIsvBKrUF/JSKWCo/Lxv6qKgsAAAAAAAAAcE6CLExi7cjHfO3Q/1aVBQAAAAAAAAA4B0EWTtQa9BeODbIcoioLAAAAAAAAAHAegiy8Sh5iuXzUY4avF4ZUZQEAAAAAAAAAziwbDodmjyOlaiz3jguyZJ8NI/usMBzDt6J78N72zwobAAAAAAAAAABOoCILJ1k/LsRyIlVZAAAAAAAAAIAzUJGFI7UG/eWI+OVR20ayfxuR/Zujnz+qsgAAAAAAAAAAp6UiC8d5dVWVrxVGfk1VFgAAAAAAAADglARZKGgN+hsRcbWw4RSyR/GtxZu9d8wuAAAAAAAAADApQRZe0hr0exHxwVRmRVUWAAAAAAAAAOAUBFn4SmvQX5mopVAyvFQYesmLqiwf9dYLGwAAAAAAAAAAjiDIwgspxLITEZcnnpEJnj3ZkylVdwEAAAAAAAAAak+QhTzEspAqsUweYpnUk1hQlQUAAAAAAAAAmIQgS8ONVWK5MquZyB7FPy0MAgAAAAAAAAAcIsjSYFMJsbxRGCl6FpcWb/RuFMYBAAAAAAAAAMZkw+HQfDTQWIjlXO2EXjsYRjwuDBdlMRy+Fb95cH37fmEbAAAAAAAAANB4oSJLM7UG/bWI+PS8IZZTGUYWT2K76XMPAAAAAAAAABxPkKVhWoP+ekTcmsdeZ49iZfHHvd8rbAAAAAAAAAAAGi8EWZqlNehvRcSH09zp4aXC0ImyZ/F/nrQdAAAAAAAAAGiubDgcOvw11xr0FyJiMyLenfaeZp8NI/usMHyi4d+I/+3gv9z+b056DAAAAAAAAADQPIIsNZdCLDsRcWUWe3qWIEtkMRy+Fb95cH37fmEbAAAAAAAAANBYWgvVWGvQX55liOXMhpFlj+PnTT8+AAAAAAAAAMDLBFlqqjXor0TEndKFWEYex28sftT7YWEcAAAAAAAAAGgsrYVqKIVY8kosl2e9d9njiOzgjM+hvMXQG7Fy8L3t/7uwDQAAAAAAAABoHBVZaqY16K9dVIjl3PIWQ0/j/2rQ4QEAAAAAAAAATiDIUiMpxHKrEiGWkWfxzcU/6f1FYRwAAAAAAAAAaBxBlpoYC7FUTvY4fnvxRu9G048hAAAAAAAAADSdIEsNtAb9jaqGWEayz+M7izd73y5sAAAAAAAAAAAaIxsOh452hbUG/a2IeHdue/As4rX/b0rPoSyGw2/EPzp4b/vPCtsAAAAAAAAAgNoTZKmwuYdYktf+aorPodfi8fAb8VsH17fvF7YBAAAAAAAAALWmtVBFlSXEMnXP443si/jLxVu9pZrtGQAAAAAAAADwCoIsFVTbEMvI03gz+zz+VWEcAAAAAAAAAKg1QZaKqX2IZeRZfHPxT3v/ujAOAAAAAAAAANSWIEuFNCbEkmSP4lvCLAAAAAAAAADQHIIsFVHqEMulwsjUCLMAAAAAAAAAQHMIslRA6SuxzPhZ9CLM8ie9vyhsAAAAAAAAAABqRZCl5JrWTug42eP47cUbvRvHbAYAAAAAAAAAakCQpcSEWF6WfR7fEWYBAAAAAAAAgPoSZCkpIZajCbMAAAAAAAAAQH0JspSQEMvJhFkAAAAAAAAAoJ4EWUpGiGUywiwAAAAAAAAAUD+CLCXSGvTXqxhiGb5RGLoQwiwAAAAAAAAAUC+CLCXRGvTXIuLDps/DaQmzAAAAAAAAAEB9CLKUQAqx3Gr6PJxVCrN8t5q/PQAAAAAAAAAwIsgyZ61BvyfEcn7ZF/Gnizd73676fgAAAAAAAABAkwmyzFFr0F+JiK3GTsA0DSPL/l38c2EWAAAAAAAAAKguQZY5SSGWnYi43MgJmAVhFgAAAAAAAACoNEGWOWgN+gsRsS3EMgPCLAAAAAAAAABQWYIsFyyFWPJKLEu12anXs8LQXAmzAAAAAAAAAEAlCbJcvK2IuFKrPXq9MDJ/eZjl8/jfF2/16hMYAgAAAAAAAICaE2S5QK1BPw+xXGvMDs/b83gj+yL+UpgFAAAAAAAAAKpBkOWCtAb99Yh4txE7WyZP401hFgAAAAAAAACohmw4HDpUM9Ya9Nci4lZd9y97HJEdlPx5dCk+j6fxH/zqv95+UNgGAAAAAAAAAJSCiiwz1hr0VyJis9Y7WQVP483h1+NfNn0aAAAAAAAAAKDMVGSZodagvxAR9yLicm13sioVWZLh1+MXB9/bfruwAQAAAAAAAACYOxVZZiSFWHbqHmKpmuxRfGvxT3p/0fR5AAAAAAAAAIAyEmSZnbyd0JW67lyVZY/jtxdv9G40fR4AAAAAAAAAoGwEWWagNehvRMS7tduxYwzfOHq8zLLP4zvCLAAAAAAAAABQLtlwOHRIpqg16Pci4ie12aEJvfZX1XweDd+Kf3jw3vafFTYAAAAAAAAAABdORZYpag36KxGxVZsdaoDs38U/X7zZ+3bT5wEAAAAAAAAAykBFlilpDfoLEbETEVdqsUOnVNWKLC9kMRy+Fb95cH37fmEbAAAAAAAAAHBhVGSZnq2mhlgqbxhZ9kX85eKt3lLTpwIAAAAAAAAA5kmQZQpag/5GRFyr/I402dN4M3scP2/6NAAAAAAAAADAPGktdE6tQX81In5a6Z2Ygkq3Fhoz/Hr84uB7228XNgAAAAAAAAAAM6ciyzm0Bv2FiNiu7A5QkD2Kby3e6N0obAAAAAAAAAAAZk6Q5Xx2IuJylXeAouzz+M7ij3v/U2EDAAAAAAAAADBTgixn1Br0NyPiSiV/+Vl4vV67kz2K/3nxZu/bhQ0AAAAAAAAAwMxkw+HQ7J5Sa9DvRcRPKvVLz9hrB8OIx3XbqXg8/Eb81sH17fuFbQAAAAAAAADA1KnIckqtQX85IrYq9UtzNs/jjexR3DF7AAAAAAAAAHAxBFlOLw+xXK7aL80ZPYmFxT/p/YXpAwAAAAAAAIDZE2Q5hdagvxERVyvzCzMV2eP47cUbvRtmEwAAAAAAAABmKxsOh6Z4Aq1BfzUiflr6X3ROXjsYRjyu9z4O34p/ePDe9p8VNgAAAAAAAAAAUyHIMoHWoL8QEXciYqn0v+ycNCHIElk8H74V7YPr2/cL2wAAAAAAAACAc9NaaDJbQizEMF7LHr0INAEAAAAAAAAAMyDI8gqtQX8tIq6d/Cga40ksLP5p7+cOOAAAAAAAAABMnyDLCVqD/nJEbB7/CJooexT/yeJHvR86+AAAAAAAAAAwXYIsJ8tbCl0+8RE0UvZ5/NHizd47jj4AAAAAAAAATI8gyzFag/5GRFw9eiuHDbPCUL0NI8sexb/wRAAAAAAAAACA6cmGw6HpPKQ16K9ExKeFDRwr+2wY2WfHba2v4dfjzsH3tn/HMwMAAAAAAAAAzk9FlqNtHTkKh2SPYmXxo94PCxsAAAAAAAAAgFMTZDkktRS6UtgAx8g+jz9avNl75+itAAAAAAAAAMCkBFnGpJZCHxQ2wEmGkWWP4l+c8AgAAAAAAAAAYAKCLC/TUoizeRpvLv64t2P2AAAAAAAAAODsBFkSLYU4r+yLuLr4UW/dRAIAAAAAAADA2WTD4bDxU5daCn1a2MDEss+GkX1mvuL1eDp8M94+uL59v7ANAAAAAAAAADiRiixf0lKI6XgWl7LH8XOzCQAAAAAAAACn1/ggS2vQX9dSiKl6HL+x+FHvhyYVAAAAAAAAAE6n0a2FWoP+ckTciYjLhY2citZCh2QxHH4jfvfgve2fFbYBAAAAAAAAAEdqekWWTSEWZmIYWfY4/tzkAgAAAAAAAMDkGhtkaQ36vYi4VtgA0/IkFhZv9H5iPgEAAAAAAABgMo1sLdQa9BdSS6GlwkbOJPu3Edm/aW6bqmNpMQQAAAAAAAAAE2tqRZYNIZYp+1qt9mZ6tBgCAAAAAAAAgIk1LsjSGvRXIuL9wgaYFS2GAAAAAAAAAGAiTazIslkYgRnLvohrizd775hnAAAAAAAAADheo4IsrUF/LSKuFjbArGkxBAAAAAAAAACv1JggS2vQX1CNhbn6ssXQDQcBAAAAAAAAAI7WpIos6xFxuTAKFyj7It5bvNVbMucAAAAAAAAAUNSIIEtr0F+OiA8KG+Cifdli6OfmHQAAAAAAAACKmlKRZaswAvPyOH5j8aPeuvkHAAAAAAAAgJdlw+GwMFgnrUF/NSJ+6rjPVvY4Ijuo93Npql6Pp8M34+2D69v3a7RXAAAAAAAAAHAuTajIohoL5fMsLsXT+NiRAQAAAAAAAIBfq3WQpTXo5+1blgoboASyL+Lq4s3eO44FAAAAAAAAAHyptkGW1qC/EBEbhQ1QItnj+HPHAwAAAAAAAAC+VOeKLHk1lsuFUSiTJ7Gw+FHvh44JAAAAAAAAAERkw+GwdtPQGvSXI+KOIMvFyR5HZAf1ey5diNfj6fDNePvg+vb9BuwtAAAAAAAAAByrrhVZNoRYqIxncSmexscOGAAAAAAAAABNV7uKLKkayy8LG5it5xGv/b8qspzH8K3oHry3/bPq7gEAAAAAAAAAnE8dK7JsFUaYvbrW9rlA2aP4SWN2FgAAAAAAAACOUKv4QWvQX42Iq4UNUAVP499b/Ki37lgBAAAAAAAA0FR1q6OxURiBCskexT91vAAAAAAAAABoqtoEWVRjoRaexaXFG70bDiYAAAAAAAAATVSniiyqsVAL2Rfx3uKt3pKjCQAAAAAAAEDT1CLIohoLtTKMLJ7Gxw4qAAAAAAAAAE1Tl4osm4URqLDsUfzu4s3eO44hAAAAAAAAAE1S+SBLa9Bfi4grhQ1QZV9WZdlyDAEAAAAAAABokjpUZNkojEANZI/iW6qyAAAAAAAAANAklQ6ytAb9XkQsFTZATWSP488dSwAAAAAAAACaouoVWdYLI1AnT2Jh8aOe5zkAAAAAAAAAjVDZIEtr0F+NiKuFDVAz2ZP4wDEFAAAAAAAAoAmqXJFlozACdaQqCwAAAAAAAAANUckgi2osNI2qLAAAAAAAAAA0QVUrsqjGQrPkVVl+3PtnjjoAAAAAAAAAdVa5IEtr0F9RjYUmyp7EHzrwAAAAAAAAANRZFSuyrBdGoAmexaXFG70bjjUAAAAAAAAAdVWpIEtr0F+OiHcLG6Ahssee/wAAAAAAAADUV9UqsmwURiiPS47FzKnKAgAAAAAAAECNVSbI0hr0FyKiV9hAeVSxUVUFqcoCAAAAAAAAQF1VKXqwHhGXC6PQNHlVlo96P3TcAQAAAAAAAKibKgVZ1goj0FDZk/gDxx4AAAAAAACAuqlEkKU16OchlqXCBmiqJ7Gw+FFv3fEHAAAAAAAAoE6qUpFFNRY4JHsSHxQGAQAAAAAAAKDCSh9kaQ36qxFxtbABmk5VFgAAAAAAAABqpgoVWVRjgWNkT+OPjt4CAAAAAAAAANWTDYfD0v7SrUF/ISL+urCBUnrtYBjx2LG5aMO3onvw3vbPmrXXAAAAAAAAANRR2SuyaJsCr/I0tl7xCAAAAAAAAACohLIHWbQVglfIHsW3Fm/23jn5UQAAAAAAAABQfqUNsrQG/V5ELBU2AEXP4p8UxgAAAAAAAACgYspckUVbIZhQ9ih+d/FWT/ALAAAAAAAAgEorZZClNegvR8TVwgbgaMPI4ln88ZHbAAAAAAAAAKAiylqRRTUWOKXscbxrzgAAAAAAAACosrIGWdYKI8DJnsWlxY96PzzxMQAAAAAAAABQYqULsrQG/V5EXC5sAF4pexJ/YJYAAAAAAAAAqKoyVmRRjQXO6kksLN7svWP+AAAAAAAAAKiiUgVZWoP+ckRcK2wAJvc0tswWAAAAAAAAAFVUtoosvcIIcCrZ42gv3uotmTUAAAAAAAAAqqZsQZb1wghwOsPI4llsmjUAAAAAAAAAqqY0QZbWoL8SEapIwBRkj+P3zSMAAAAAAAAAVVOmiiyqscC0PItLix/1vKYAAAAAAAAAqJQyBVl6hRHgzLIn8d+aPQAAAAAAAACqpBRBltagn4dYLhc2AGf3JP7DxZu9d8wgAAAAAAAAAFVRloosa4URKmd4yTErnWfxT5o+BQAAAAAAAABUx9yDLK1BfyEirhU2UD1lalTFC9mT+M/MBAAAAAAAAABVUYboQa8wAkzHs7i0+FHvh2YTAAAAAAAAgCoQZIG6exb/wDEGAAAAAAAAoAqy4XA4t1+zNegvR8QvCxuopOyzYWSfOXZlNPxmLB9c377f9HkAAAAAAAAAoNzmXZFFNRa4CM9i0zwDAAAAAAAAUHbzDrKsFUaAqcsex++bVQAAAAAAAADKbm5BltRW6EphAzB9z+LS4s3et80sAAAAAAAAAGU2z4os2grBRXoa/4v5BgAAAAAAAKDM5hlk0VYILlD2ONrmGwAAAAAAAIAym0uQRVshmINhZIs3ejdMPQAAAAAAAABlNa+KLKuFEWDmsmfx980yAAAAAAAAAGU1ryBLrzACzN7j+I3FW70lMw0AAAAAAABAGV14kKU16C9ExLXCBuBiPItNMw0AAAAAAABAGc2jIotqLDBH2ZP4z80/AAAAAAAAAGU0jyDLamEEuDhP483Fm713zDgAAAAAAAAAZaMiCzTR8/jvHHcAAAAAAAAAyuZCgyytQT+vxnK5sAG4UNnj+H0zDgAAAAAAAEDZXHRFFtVYoAyexaXFm71vOxYAAAAAAAAAlIkgCzTV0/gfHHsAAAAAAAAAyuTCgiytQX85IpYKG4C5yJ7G3zLzAAAAAAAAAJTJRVZkUY0FykR7IQAAAAAAAABK5iKDLKuFEWC+tBcCAAAAAAAAoEQuMshyrTACzJX2QgAAAAAAAACUyYUEWVqDvmosUEbaCwEAAAAAAABQIhdVkaVXGAHKQXshAAAAAAAAAEriooIsKrJASWkvBAAAAAAAAEBZzDzI0hr0FyLiSmEDUA7aCwEAAAAAAABQEpcu4NfQVgjK7nlcj4g/c5wAAAAAgLpod7rrEZHfbLszwS7d2d/bfVAYZWrane5KOh6ztJx+JnHi82J/b/fE7QDA7GTD4XCm/wetQX8rIt4tbKB2ss+GkX3muFbSpfj8V3+4/Y2mTwMAAAAAUA/tTncjIj6Y0s48zIMuhdFfe1XgIf+3pwnJ3Nvf2703+h/tTvc04YzjTPrfyIMmK4XRoiZW47899vfRMb+Xfh7s7+2e9ByBr7Q73dWI2Dji3PHgiHONkN0czCh499K5HTjZRQRZ8hfkUmEDtSPIUm3Dt6J78N72z5o+DwAAAABAtaUFyE8dRubg4Vhw6c4o6KK6CyMpmJY/Ny6fc1JuF0Z+bRSwmobDz91Jw27ndZ4gycoU5vei3B0LOo7OHffGzh2CLzTWTIMsrUE/Pxn/srCBWhJkqbbhm7F98N3tftPnAQAAAACotnane6eB1UIov/tpcXonLVjfsUjdPM5PnMH4uUM4jsa4NOMdXS2MAKWUPfV6BQAAAACqrd3prlskpqSW0s/V0a/X7nRHFVxG4ZYdbWTqy/mJMzrq3BGpmsudsXOH9mbUyqwrsmxFxLuFDdSSiizVN/xmLB9c377f9HkAAAAAAKqn3ekupLvVq9JSAo5yPwVbdtLitKotNeD8xAV4eOjcIdhCpanIAvzas/jjiPiuGQEAAAAAKmjTIjE1sJRuEn9xo3i70707tjC97QBX1rrzEzOWP7+upZ/83DEKxW07d1BFM6vI0hr0lyPil4UN1JaKLNU3/Hr84uB72283fR4AAAAAgGppd7rWJGiKT/KF6bQ4rQ1RBajGQgk8HDtvCLVQCbOsyKIaS9O8keVRiKbPQqVlj6Pd9DkAAAAAACpp02GjIUYVF26lai1baXFaC6LyUo2Febs8qvTU7nRHoZZN7Ycos1lWZMkvGt8vbKC2sscR2YEgS9UNvxHfP/jOtg99AAAAAEAltDvd/MbanzpaNNztsVCLSi0loRoLJXc3BVq2HCjK5rUZ/j4qskAVPfuy7yYAAAAAQEWsO1AQV/MqLRHx1+1OdysFvJi/NSEWSuxKqu70oN3pbqTgFZTCTCqytAb9/En+14UN1JqKLDVxKT7/1R9uf6Pp0wAAAAAAlF+7012OiF86VHCk+6nt1pYqLfPR7nTzaixLTdx3KulhOmdsOmcwb7OqyLJSGAGq4Wm8uXiz946jBQAAAABUwIaDBMfKAxQfjlVpsX53gdJ8C7FQJXn1oA/ydlgqtDBvswqyKFcGVfb8Rak7AAAAAIDSSgtsPUcIJvJuRHza7nR32p2u183FsNZCVY0HWrTvYy4EWYCC7Fn8/cIgAAAAAEC59NJiGzC5qxHxk7zlTbvTFbSYLeulVF3+Hvthu9O90+50PZ+5UFoLAUVP4m8WxgAAAAAAysWiGpxd3vLmlkDLTF2p8b7RLPlz+aftTndTuyEuytSDLK1Bf0UCGipuGNniRz2lwgAAAACAMlt2dODcBFqASb0fEXl1FkUtmLlZVGTxxIU6eK63LAAAAABQapsR8YOI+FFE3I6Iuw4XnNko0LKjhcjUPKzJfsC4/FzxabvT3TArzFI2HA6n+p9vDfqbKY1Fw2SPI7KD6T6fmKNL8fmv/nD7Gw4BAAAAAFAl7U53OVVrGf2spD+1+YDJfRIR6/t7u/fM2dmMnYvyc9BCaoe24FxEjeTnibX9vd0HDirTNosgy05EXC1soPYEWepn+M1YPri+fb/p8wAAAAAA1MPYwvLqWNDFmsbFyKtT3LGQXzl51aNNC9XT1e50F8ZCduNhl/zPy3XaV2rvbgqz3HGomaZZBFkkGRpKkKV+ht+I//XgO9v/Y9PnAQAAAACot3anu5IWkEc/wi3Hyxct81DDTnrE6M/Y39vdOfZfndJY6Gjc6hF/F4yZvfupOst23Xe0LFJ7p8NhF+clyioPKq4KszBNUw2ytAb9/GT6aWEDjSDIUj/Dr8cvDr63/XbT5wEAAAAAaJ4Ublkd+2lqlYQ8xJAHGLanGVSZhbT4H1q5zIw2InM2VsllZSzk0tSAy+2xvz9IFZ/OYnS+GFEV52wepvODwBtTMe0gy1pE3CpsoBEEWWro9Xj6q3+8/bWmTwMAAAAAQApJ9PKFuoYsctaqXcShtlKjAICAy+lZrC6ZFG4ZnZ/erelu5uejjYi4d5HnJOG4M7m+v7e7VcHfm5KZdpBlMyLeL2ygEQRZ6mn4VnQP3tv+WdPnAQAAAABgpN3p5gvG6zWuhHA3tYmofeWNtFC9MhZwWSo8iKOozlJCKdSynn7qEri7u7+3u1IYnTMt6U4kzMK5TTvIsuNF2lyCLPU0fDM+Ovju9nebPg8AAAAAAIelEMRmze7OzytuLDc1oJAqt4y3lBJsOV7+XOmVveVUE6VAy0YNChDkz7GV/b3de4UtJZTeE0Y/TV4zf5jCkLWo6MV8TDvIIsXQYIIs9TT8evzi4Hvbbzd9HgAAAAAAjtPudPMF4w+O2Vw1fW1jfi0FW3ppYfpa4QHkfrS/t7tuJsqn3enmrdBuVXgXfrC/t7tRGK2AQy2feg1pSTdOmIVzmVqQpTXo52/kvyxsoDEEWWrq9Xj6q3+8/bWmTwMAAAAAwElqsGCcu72/t7taGOUFC9Mnakw7qqqp+LnpN6tSjeVVUku6tYYF4pwXOLPXpjh1petNBkzBs7i0eLP3jqkEAAAAADje/t7uVkRcP/YB1bDpEB8vX4zNq9Xs7+2u7e/t5qGWfkR8fOw/aJa8vda91FqFEknnpu9X8JjcrkuIJb48Dvm5Iw+ztPJKMxFxv/Cg+snPC1sN2E9mQJAFeLXnLxKiAAAAAACcIC0Y/+D4R5RebRaNL8Io1JIWpq+n6gNNlleo+WmqAEK5nqt5SO12YUO57VTs951ICsRt7O/tLqfzRt0DLddS+z04FUEW4NWehwQ1AAAAAMAE8gXKqgYa9vd27xQGmWTe8oXprf293Xyt7HdSlZaHhQc2x612p6sKQ/kIE5RMOm80IdDyQbvTlSXgVARZgFfKnsaSWQIAAAAAmNi6qWqmPAyUqrQsp3YuTWgfcpR3253uTrvTXThiG3Owv7e70+DnY6mNBVq+X+MQnHAbpzLNIIuFbqirZ3Fp8WbvHccXAAAAAODV0oJx09vMNFqq0rLZoPYhR7mat4cRZimVzaZPQJmlFlD5OeOTGu7eFS2GOI2pBFlag762I1B3z0NPSwAAAACAyVkw5oUGtQ85ypWIuKOtSBc28iQAACAASURBVGnsNH0Cyi6F4HoR0a9hdZa8xdByYRSOMK2KLJ5wUHfPQ2ANAAAAAGBy2xWbq7q2syiNBgdallJlFmGWOctbX1Xotd7o0M3+3u52WoO/XdhYbUKeTESQBZhI9lT7MAAAAACASeV31VesvdCdwggzMRZo+UGDAkSXhVlKw2u9IlJ1lvxG8x/VaLeutTtdN8/zStMKsniyQd09i0uL/0f/bzvOAAAAAAATq1pVFi7Q/t7uRkTkwY5PGjLvwizloL1Qxezv7a6nSk51sdH0Y8qrqcgCTO7x8B+ZLQAAAACAial8wIn293bv7e/t9iLi7zak3ZAwC5xBXskphVnqUMXpqqosvMq0gixajkATPIu/5zgDAAAAAEzsnqliEvt7uztj7YbqTphlvgTsKiqFWVZrEmZRlYUTnTvI0hr0vclAQ2TP423HGgAAAABgMvt7uxaMOZXUbuh3IuJuzWdOmGV+HjR1x+sgva+s12BX8qosur5wrGlUZFkojAD19CS+6cgCAAAAAJxKE9rFMEX5QvX+3u5KA6qzCLPAGYy1Gaq6OgRymJFpBFn0r4IGWdzqf9fxBgAAAACYmPZCnMlYdZY6h6FGYRY3zsMppDDLjyo+Z2uFEUhUZAFO5/nwb5sxAAAAAACYvdRGJK9Y8nGNp1uYBc5gf293veJtyC63O91eYZTGiykFWZT7giZ5FoIsAAAAAABwQfb3dh/s7+2upVYiD2s671fyMEthFHiVXsXPC4IsHGkaQZblwghQW9nz+I8cXQAAAAAAuFiplchqjVsNXWl3uluFUabtgRmtj/293bx93UaFd0iQhSNNI8iyVBgB6uv5ixJ/AAAAAABMxqIxUzPWauh2TWf13XanW+VF+dJLzyHqdUw3K3xOyNsLrRZGabxzBVlag762QtA0T+NNxxwAAAAAYGJVWTS+VxihlFKroXzh9+OaHqEP2p2uKg1wOmsVni+vdwrOW5FloTAC1N7izd47jjIAAAAAQK0IslTM/t5uvnB9vaa7t9XudN1QDxNKLYaqGm5TkYWC8wZZvIFAEw3j7zjuAAAAAAAwX/t7u1s1DbNcTmEWN9U31P7e7k7T5+AMqtqW64rXOoepyAKc3jD+nlkDAAAAAID5S2GW34mIhzU7HFciYrMwChyp4lVZFNDgJSqyAKc3jL9h1gAAAAAAoBz293bvpPYcdQuzvNvudNcLo8BxqlqVRXshXqIiC3Bq2bMXKWgAAAAAAKAkahxm2Wh3um6uhwmkqiyfVHCuvMZ5iYoswOkN4+tmDQAAAAAAyqWmYZbLEbFVGAWOU8XXy3JhhEY7b5DlcmEEqL+n8aajDAAAAAAA5VPTMMuVdqe7WRgFCvb3drcr+PrXDYKXnDnI0hr0paKgwRZv9ZYcfwAAAAAAKJ+ahlneb3e6q4VR4CjbR4yVWrvTlT/gK+epyOKJBE32PPqOPwAAAAAAlFMKs/Rqdni22p3uQmEUOKxyQRb5A8adJ8jiTQKa7W82fQIAAAAAAKDM9vd2dyLieo0OUl4tfqMwCrwktReCyjpPkGWlMAI0x/P4Tx1tAAAAAAAot/293a2I+EGNDpMWQzCZ2xWbJ69rvnKeIAvQZMO47PgDAAAAAED57e/t5lVMPq7RodosjACH7RRGoCJUZAHOJHuuTx0AAAAAwAQsJFIK+3u7axFxtyZH40q709ViCE7m/YfKOk+QZaEwAgAAAAAAAJRV3rrjYU2Oznq707VeCcfY39sVZKGyBFmYmuHr5rJRnjoHAAAAAABAlezv7T6IiF5NDtplLYbgle5XaIpWCyM01nmCLFcKIzSbIEuzDJs+AQAAAAAAUD2pSsMPanLo3m13uha/4Xj3jt0CJXaeIAvQcIs3e+80fQ4AAAAAAKBq9vd2NyLidk0O3EZhBBjRXohKOlOQpTXoLxcGgeYZxt9x1AEAAAAAoJLyFkMPa3DorrY73bq0S4Jpe2BGqaKzVmQRZAEAAAAAAICK2t/bzRe412py/DYLI0DujlmgirQWAs5uGFfNHgAAAAAAVNP+3u52RHxSg8O31O506xLKgabSBomvqMgCnN0wWmYPAAAAAAAqba0mLYY2CiOAiixUkiALAAAAAAAANFSNWgypylIft5s+AdOSXt9QOVoLAWf3PP5jswcAAAAAANVWoxZDqrJAdakew1fOGmRZKIwAjZMN45KjDgAAAAAAtbBegxZDqrJAdakew1fOGmRZKYwAAAAAAAAAlbS/t3svIjZrcPQEWaCaVGThK1oLAWf3PL5p9gAAAAAAoB7293bz1jz3K74zV9ud7mphFCizh/t7uyqy8BVBFuDsnmktBAAAAAAANbNRg91ZL4wAZaYaCy85a5BloTACAAAAAAAAVNr+3u5WRNyu+G5ca3e6y4VRoKx2HBnGnTXIcqUwAgAAAAAAANRBHaqyrBVGgLJSkYWXaC0EnMvix/3fM4MAAAAAAFAf+3u7OzWoyqK9EFSHiiy8RJAFOJ+nw98ygwAAAAAAUDtVr8pyud3pqsoC5Xd3f2/3gePEOEEWAAAAAAAA4CU1qcrSK4xAg7Q73ZUK7O1WYYTGO3WQpTXorxYGAQAAAAAAqLJ7jh5HqHpVlmvtTne5MArNsVCBPd0ujNB4KrIAAAAAAAAgyEKBqixQeWUPcuVthbz/UCDIApzPMP6WGQQAAAAAgNqqetuPtcIINEfZgyzaCnEkQRbgfIbxthkEAAAAAIB62t/bzRea71d4565oL0SDrZR81wVZOJIgCwAAAAAAAHCSzRO2VYH2QjRVmYMsH+/v7T4ojNJ4IcgCAAAAAAAAvEJeNeHhyQ8pNe2FaJx2p7sQEUsl3m/VWDjWWYIsZS8/BAAAAAAAAExJqpqwXeH51F6IJlot8T7f3t/b3SmMQnKWIMtCYQQAAAAAAACos6pXT9BeiKYpc5BlozACY7QWAgAAAAAAAE6UqifcP+kxJSfIQtOUNciiGguvJMgCAAAAAAAATGKzwrN0td3p6jxBI6RWWldKuq+qsfBKgiwAAAAAAADAJLYrPktlbrUC01TWCkQfq8bCJC6ZJabq9Yh4ZkqB80lJ4bxU5b2mTGXa5+XChogH+3u7dwqjzFW70z3uA6/jBadwwmvpKz7YUiXp/Ty/q2izbu8HY9cq+es2v4NxJW3Kx5YK/yDi9tjf87l4MPrT65o6aXe6K+k1cRTXhjAF6c75lVf8l+416TsEgHnKz7ftTvduiSs9vEqvBmEcmMRaCWfpYUSsF0bhCIIsTJcgC3AOaUEzv4i5FhF3J/iiqnLSPq6kn+X05+WT9qPd6Y7+mvefvZd+8i/E71gImp20YDc6VqNFu1d+QB87Xg/TccrtjI6dY0YTpHPdaMFhfOHhlee8w8ZeU3HodTVaGPfaYu7anW4vXcNcTb9LL1/crvKCWlqcXx37OdVrd2wuDv999Lq+m17H+Wt3x+IjZZVeC8tj1+/LJwS4Cg69j42u5+Pw+1i6tn9Q+A9AjY2FJFcOXTtO9NnrFK+3nbE/BcwApmMrIj6s6FyqyELtlbit0IbPPUwqGw6Hp5qs1qCf3132QWED5L2qDoYRj81Eo7wRf/Wr/2r732/6NHB26YJqLf0c/jL4+v7e7laVpzct5vbSF3JXCw+YjrvpC7ltC7lnl56Lo+N1lgW707h9aPHOxTuVlBb3VsaqNEy8sDcjD8deW6PAn8VxZiK9b6yn942jnvd5qdwy3v10pHS3e2/svXCW74NHGV3PbFlgZF7GrgdXZnz9fpzR+9idsfcxrwdq4YibOi769XXYKFB5L30m81mamUqvgZ9WYJb/rtcDk0jXTb+s8GT9ZpO/L0jf53xa2FAut/f3doWOzqjd6W5GxPsl+7UcU05FkIWpEmRpoK/Fg1/9wXar6dPA6YwtlKy94surT/b3dsvax/FIY/vWS5VlLtrDVBqzdi0NZiF9aFs7YRHyonySjtu2UAtllr58XR1b5Lvohe6zuD8WbtkWbOE80pe1o2uYSe5sKv2Xo+1Od22O1y3HuZ/u8NzymmWWLjjIfFYPxwKa267xqYKx19bomrEqrSdGoUo3HDB1gizUUbvTvVPh9kKVv4HyPCpyThJ6OKO0RnGvZJ9v8s81la5cy8XTWgiAC3HGgEclWguVILwyLr84fTf/aXe6+SLQhnDEyya4g34erqWfW+1O95O0cKdXL3OXwl6jxb2TgodltpR+8tfYh+ncOAq1eJ3xSmcIr4zL/91mYXTO0mt7fU6VVyaxlG6g+aDd6X6c3hctqDAVqRXYasmuBU9yeexaMX9NjIIt201vy5U+h+VzsSbgM1+HqnqtVuS1dZQr6efF3cvtTvf22A0HFl0AiqreXqixQRZqb72En/XXXU9xWoIswPlk8YUZ5DjnXPiJsn/5lb4E76XgSBnl83crX0BLpQQ3mxpoGftidb0Cd4q8WKhIi+2bafFOEIkLUYLWIhdhaSzw93BscUKoha+koMfqOa5hRkoTyq3Ye+G40ev1duqlLdDCqZQsdD4N48GWfP/upkWYRi20p8+a2+l81ksVa7jYYzCt98oyu5p+RmHoUfVTizAAX9qucJClEjdQwmmlzz/rJZu4j5tcAYmzE2QBzmX4Wvw/ZpBxqSxhr0J3OJ7K2IXgWoX273K6q3m93enmC0CluzN8VtIX3BsVXZBfSl8GbDQ9iMRs1XCB7zQuHxFq0ZqtoWZUpWG5MHLBxq5dynhH1mnkC4k/TZXL3MnFiRr23nYlXTN+2JRQSwpQ7Iyd05ScvyAlas06D0upUsv76bW2qfop0HT59UYK+lXxPeFKfs3oPE4Nle2z/939vd21wihMQJAFgHOpSF/5cxsrwV/W6iuTuJy+4F5LC0C1vaM5Bao2KtwKZdx4EGldep1pSYv2aw0MrxxnPNRyNwVavN5qbKxy3GodXwdjYc4qX7scZVS57AdCnhxWgYqJs3ZUqKVW1f3y6+Ej7vx2R/UMTaHSah1dGat+KggNNN32qCVbBY3CsVALYy31y+Kh0DnnIcgCwKmkuxtXL6iv/O3CyAWrWSBi5Eq6o/lHqUR/nb7YXkvHq453B+aL7LfSl/drvijlLMY+0K7VNXg4JVfS620z3W1rsbwGDrXOWq3rneQ1DrAcloc81/L3fu2Gmi0959cqVjHxIoyHWj5JlSMqG9BM5/CtY4KHrmlmIH22amLFvtO4rAUewIsgSFWDLKuCLNTMZomujV+EWHyfxnkIsjBVw9cjMlMKtTPWLmi1KXdgpS/t1moWYDks/5C5mhaAKh2KqHmA5bD8Nfhpfif6/t7uRmErHKEh57RZGK+IJNBSMYfCt7W/hmlQgGXcUgrnek9sIJXFTmVUyWgz3TW9VaXF9hTk3jjpS/n8M6sAwfmNBcOq3o5uHkYt8FT2A5qmyu+/qrpRG+nzUZk+G626EZPzEmRhul43n1B1hxZ9Vpq26JlCO1sNupszX9TbqWrLmoYFWA77YFQ+P+9JXNhK46Xz+bo71KdCoKUCShpcmfmXumOv9SYvOo7eE93tVXPp+T5aZPfednrj1SPuj4VaSvkFc8Ov9S9U+hy81uC2XNM0quy3pkIL0AT59XcK8VXxxgFBFmohhZHL9N3+dSEWpuEsQZad9CUuADWQLnJGoZWy3a18YV/41LSF0KRGLWtW9vd2y9RD81i+1P5K/nq9k6rqbBe20khjVRl67qSduvFASyUDgHWSv2+NXb/UtlXQSdL7YZlKB89T/p54L1Vl8IVZzQhszcRSqtD4/lioZWfe15TnaIO4UBhhkvnupflWtW/6RhVa8pZD696bgJrbqWiQpenfK1If2yX6nHTd92VMi4osAA2TAhuj4MpK0y/Y0yLYpi/uXnh/tEhQ1ruZGx44Ok7+IeUn7U73+/t7u5vHPIYGaGhbkXkZBQDX0znTnbYzlt6fVg5VjWvsYnZ6P9xsSsvHU7ic2u/54qwmvLddmPFQS/7/eTctSOUL73dmuQB/qJpW7xyfT1fSF/hMNu9uDLg4V9N7049ShRaVw4A62knXEpWjPSFV1+50t0r03YDP4kyVIAtAjaVFjpWxH4sdSfrCdNOX4gX5fKykD3Gl+YJtrDyiAMvxPkxVddaOfQS1ZJFvrq6kO20tTEzRodBK1YO3U138df0ysTxoFr5Aq670XN+o6oJIDVwZ/+yYwi151ZZ7Yz+RznGnee9bGCvhn5/jlwUpLpYAy1zl57M11TSBmqpyEGS5MAIVkUIsZfh+4GFqfy8UxlQJsgDUQKoqsjy22LNck9DKTC582p3uhrLkJ8qfOztlCLNYxDi1d9PCnTBLA1jQLhULE2eUQrfL6aeOi5pTex/VRujUKtU2kS9pIVRqS+mnrMHye4URvqKSV2mMqml+kl87CkEDdZGfz1Krwip+lhNkoZJKFmLR4peZEGQBqJCxtkCR/lzwRdTk0vxtuftsInMPs1iwOzNhlpqzyFdao4WJj8vcom1exq5hlsd+vB9PQFWyc3nRNtF7YjWoFME5CbIcQSvd0rqWP2eFoIGauVPR67jVwgiUXIlCLHdTiMV3YMyEIAtwPln8azM4WxYsz0/VgjO7kqrirMzov38kX7ZOhTBLTVnkq4T8vWa13en2mn43ylhVrTXXMGfT7nTX0xyav7PL3xN3tBkqL2EtmD6fgStBCBqomzspqFc1C56JVEW6xtsqyWvNNQwzd+ogy1//g5/stAb9wjjQUFn8K4d+dvJFsHRh0tTFi3PfVaeqx7ldyRPeFxGIGAttfVDYyFnkC3cPtFSoBwGvysmDRp+2O93rTV089/77pbP2h7awP3W3UsBTmKVkShTWepgWX+6klmAP0t/HLY+Vnl8ea+3qc0Y5KGWeCEFWTh42WknVWTyPgSrbqeh3eqqdl5eAxJj03eBWSZ6z39/f290sjMKUqcgCUFJpAehWk4/P/t7umYMsFoCmauaBCG2fZiZvqXDHwl21tTvdDQGvyrqVWrQ1qjpSu9PNv8x4v7CBSedPCGg28tfjvbOGi5iuFGDenuO1+sP0/58/H3am8LljJZWlX7UYMhcP3QnqM3DFjVr7ajUEVFllw3j5e+h5rgeZGQHPpETfDd6PiMZXIObiCLIAlNBYGWDOwB1oMzGTQISS1xfiVjp2PmBUTEkXI8bvWL839qXCneMWkNIdI6NSvavp7ysNuov93TQHjegZnKrJCbGcQclKBNfVdgqXeU+coxRg3p7Te8An+etsmgvFadHjXtqn0Wu5l9qqCRRcjMa/pksagrw/dt34VbWj487B6bUzams7XvVouSEBsVGrIXc4A5WUf95td7oPK/o5f3kalcFh2tJnp82SXAv9KF9zESDnIgmyAJTTmhDG6VkAmrnNaQYitM66UPnC3YoPGtVRstfH7dFd62d5/R/6Ny9VQmjQXez5ft3Jj2sDFtAtvJxBCjttq0w2c/k5dSuFWbwnzsEc7yT8OH3pOvMFivTc2krPteX02W7dNe9MNbbSUsluDBhVOhpdN57qPJsef+yxHAWDx37q+pr6MH12a1RFP6A27lQ0yLtQGIE5SgGWjZK8nvJw8prqpszDWYMst91VwpEuZRExPGoLdZXFv3RsZ8LF8ykJRVyIy9MIRKjCMhdL6fXRa+C+V05J2rLcT6/TrVku9h5xF/tyWpzo1TCUuJRKxte2GkT6okUQ49duF0aOkCrJfVjcwoxcSec3C4QXaI6B8/x1uD6v8256n9tI7+3rAi0z08hWLCnYsVWCIHAeFNuedUuc9Dq+MwrNpv1fS9eNdbv+yCv6RTp/CV4CVVLVIMtKU68nKI+xyo7rJbrR6wf5tZfrEeZFRRam6zXz2TQH723/rOlzMCMuDL68m+uV0gXehjYGF2bpPIs/aZFzy0LnXFzLF0uVqf7/2bv/2MjO/b7vD/enVvIVd+0rJbGvQmoiOL0ygqUm166NYLoUHCMNkGS5gNk6bYLlSrrXdgtH3Fv0DxdoxG0N1C0QiAsURQrHWS5SFFYXCYd/tOiPFCI9twUCOCOysOG46R2RrVE4hkUu07RKFF1P8ex+Rzo7Z2Y4P845z/f7PO8XQOjeM6vVzDmc8+N5Ps/3q5ecz3YDP6zuyYr1IKssZMKvt4r9amYVeyznjHkJs6xEupJlKbcFQ1FJLig/QbhbdMtEDBbo+nYq1zMV9z0y8NsLtPDsUqyjFNuFKWgldCr//WATG3LcnwTEJNSyLpM/sYTF/MKPJaqIATCG9jwo0oq/f475OthXcU7T2MCOBGr5TiMoYgcAoFNz3CBHxM4cjJQbvV0Ggit3WyrgTEQG7j8kxBLUhlS8gDJyPjsMGGI5cM692Wm3lrUELPxAhZ+A7LRb/nf2TXmIjoGfXPlQJqBiwwDHmDL3MIRYwtnkmli+QNc3f01b1hjelWubn2x/Q94nZpfc6ml5rnoQMLBx3zm32Gm3NrRMLPlQi7Ti8ef1u1JdMAbXJQRN1V4AVlgNly7ntkCDqK6D/tnIj6n7dqt+YUWt3vD3UR9JhVYtYwN7Mj64QogFGkxbkcVqeTAAMMHfJEjlil1KTw+mYAVa6p70/B9n4FJRyWs8/b5s8YCuS+DzmaoV68NIuGZXJp03ImlN9sCXjI+sIkRyK+KnQTtENbgmliwT2Kryd90PvK5oX7UplSSWlLQTtC6ZaoMKKnn58NWa5go48t3flLDimtw3Wl9IcT3TnpLKLAC04zyFovnr4L4PfgxYPDNsIdbjqu9X5NmnF7jp/e+rmf+tfVw8aIVmYJi5brc75KXhrj265R8C3hv6B5Csuc+cmzue/HcKRl1wn37y883nOXzlkQm7rYTDg9f6B2pk8G4zkklM63Z8OnvUZyBwpNatsnvYYzy+3ZOsvAhhTyYjzK2wkAGCzQiuj6dSNSCaAEit3tjiGv2FPV/lKLvBr7ziWVodroklCBRieSgVGUwh3DaT3Hk2VgpaUN7zFVhyWw2I6Jm0V22KSWKjZMHahwbe/ZtMZGIWtXrD4gRRMvcUPYbOSVU4GhCSGWYxsmrjBFig2rQVWQDAuTn3L9gL5ZLJxWUZCF6Tfs8ptWXZlM/9hNxgbwZOMB9kVhfsZ/53NnVtIWVdhJt+4H3Q5A+BI/U2UyzDrk3gCf+72quwjCLBj2WZ/Ns0fG2cz6ywjSXMsi7XRKpwZXBdVI1rYsEIsUzG30tTjXNqJoMVkwpc4VJ9FZaz+Op3tXqjKb8vlisgXZffg5GLSQBAgSODz+h0oEjbQoKt8B/6Z+GYFlYhTtNWZPE3zNu5F5A8KrIk5qJ7/MnPNa+lvhuqJlVaViTgkcIk0VFmsKbKz3skg8n7vZ9JVz7JpNVS5mc5wptiX01gKVvRwUAroV7KPpXA0TBmV1XGIGCIJcYKIFcjmJjInUstU9D6QIuDTru1pGAVPc7GNbEg8qyyX3EgI4oqBYECQJaZDS9NIvDvhZ/gWI+pAkgkbW+T+N2PERVZkAppAWMuGNJpt+ZyGyNGRZak3e+0W+up7wTYMG2QhRMcBiLIkpbuZffd4281X0t9P4SUCbWsJ5gaLtqprMb1D1vNsgbrIg4i3ZP9t65gtflRNoAkVXPODCLJscn+LEsIKdbJBP87v0hp6uoFDLFEXY5cBmG2DF8Pozs+ckw2El/ddiDXFSamdeOaWIBAoa0jCQJGcewIs4wtie9s4N8H09X7zlKrNzaNh6AJYBpEkAWpkCpY5hY1EGRBYg7kPvPJD8/C0GraIIt/kPoo9wKSR5AlLd3n3N7xN5tJ9Y7UTAa51iUkwcDneI4kfLEVojoBx6wwpd54y3Falp/YqgswAFoxQizliqASSJR9uTMhzhVKNgdxKsFO19cWsV+vkpyLPMg5DNfEGQVafftGbOWwCbOM5dag9qYxCfx7cMe348ltjYxM4DUNf9eSOE4xIciCVNTqDX9P/Z61j0uQBYnbk/uiZizVghGHqYIs7mmYhbQCcgiypIUgi161emNNAhKUsM87zYRXVDyYy8TruvwwYD2enV4FnSpvruVYrUT0/WIFeoUIsVTH6sCZiLrEa+Y8ukLroVLsZSqSHc56ryODm702iTG2SMw67bRbV3NbMZZA1Q2iDR8xsTBS9JP3hFiqI2HbptFnu+hahsaOIAtSYfh5PKnffe43MULQxb9AFkEWFIogS1q6V9yvHr/TfCf1/aCZ3JCuKWj1ooG/AduUGzCVk7kyiLbJxN5QB7J/Smv9NImIWmZEXTZcC0Is1ZNQ56bRgGD0K83dl6GWtQjb7VXpINMWsfRB10yVsliPGavbp1CrN3wwbbvi/+xBp91aym2NSK3e8KHG92P+jBPyk/brhFhKleQ5UO5HNo2OmyR7r28RQRakQp7FHxj8uARZgLwjqXy8RaUWhDBLkCVEyVgoR5AlLd3n3d3jt5tMfhogAYmNRAMtfmXypqUJQZkM2KI6yxOnsi82td4sRxBoOeq0W4u5rShMwB78yQ9sG27P4M99SykNEsi9yroEJLj+jXYg18agJX8jbZEYfTiiaPLd3Q/wO5DEREOt3mgScn/CP9OtxX5dlEDFbqCgYPLh9oDB81ntdNqtFYPvOzkEWZAKwwEJgizAaHuZsQhCtKjEOXYzAMTPD/h12i0/MfSqc+5hIod8Tx5Alq2tapf3uyifIVU+7X1H2t6sax609g+5/vfMV1CQ923NgoSnUAJZiRQixOKDECupP1hKCdRl2R+WzEsZ12TIvcq6tHa5I2ENfMn/Dt/393I+aOEnG0NfG/33S+4v/T3LPYPfs0GuS0AH4wsRvt5JaJJhLZLv1rSOpErIMiGWUj1MPcTinl7X/Pftbu4F/W7KMwcAAECZbki1pUO/aE8WNQClmiXIQl8sIHFUY7EnE2h5I+KQRDbAYnaA208+SzgileBRT2+w2gdY1LaBGkQCSEtGj9l6bgtmJqtbQpXTXaHk51OGwyzXpbd4cuT8cx2roAAAIABJREFU78+nbyYe6nQS6PHXxatag51yz7IhgZb7uT9gD9fEMUnrmxAV6ZI5RnIvrP3zHsh3v8gA4o602VtMqNXNZqAQywHnvS9JoOdO7gX9mEwCoAmVGoC4zcuivY9r9caujH8CpZiltZAfqHov9wKSRmuhtHzyC8251PeBdVKFwQ/ULETwcY6kZ3p0K9gNlziehD9+G7EMVMuKuE1jrRZeJfhQnMAtbe77Ce/c1sQZbjP0hoRxkhVBC7dp7Ml10VwoV75rW4EmZItwKhXhGIAfIWBLoSRbaPgBYqXnwGfuOaSqyJL8LMo/r45xPjiQ36fdFEuVS3A1xBjrqbShZLFiH3meCxVIn9aeLIaBUrQWQkpq9YbFSSJaCwHT8/fzmwmF0FGRCzP8Z3jIAVJ2wX3K8bfPhz5kUHTTcFDiVG6Sol217qvo1OoNF2mY5VQm6qKq8ORv2mv1xr6xSfM1mSjGjGQSJ0SrBe+AEMtgfpJGBmqshVm2ZCIwWTKYuJxIoMUHO9eMV5Xz17+lgBOzs/LnhxX57mG4UIHdVKuC+mv7R7mt4V3NvgMJoOzKT86A1ZqHqQepZXFJqHPlBiGWweR5btnYM/gNXymLNlEAACAAH1x/IOMA0SxWRXiztBZidRKQsjn3Lzj+cZBy8GtGy+f61cpLMYdYeuQYxdZm6L6seI5yoE0GhRcLLrNeJvqqFydkJQKO4wiZNkOWJNtiqJ8Pd8hK4zsS+IiJD3belTYaAyeArZH7szcNtvVyEmTBEDK5e3Pwq6U6SnWFuFy/ND4LTPRdkfN49if1EMtiwNDcHoGH0Yw+g2/QYggAAAS0IIGWwwEhdmBiUwdZTla3KS8HJKx7zn3C8Y+LpGStDNKcSs/05ZQGP2UgbS/3gj0H0ipjPfay4fL5lo2EWRakHQRm4FdBBprcc1Len1W1Z5B9ZC28uc6kxJfknmVJApEx2Ik12NmrpmMo1NlzU6prYbBQ4brUJ901hhrnGaCeSTNglTjCz2OQZ3BL17B5zpUAAEABH2j50HcDYLwZs5ilIoszurIKQBHm3O+yH6O0bmCF855M9jRzr6Rhxfgq9Huddmsppcl2Y2EWBrRnIA9moSaZTmkNNT4JQlgKQTAp0Ucqyq0brSjX0wvmrsQc7MxUQrIWZmFyfoBavbEWsL1Xqvf/T0iAX+PCA74rU6jVG5sBK/jdT70azoSWjY2B3yRgBgAAlPDPjh/V6o0tFotgGrMGWVjxCaRqzv0fHPv4yCSK5omyu1KFJdn2dvLZLYYNelVYkpxozxw37QOgDHjOZivgqtqNlM+N05AQhKUqV0xKDCChJIthlgNpj5jExLyxUGcP7YUGC3Uvd8DE+xMan9W4Nk1IrufvBvrPE36eUOYaZkmollUA0GMtxA6gXLedc4eyMAIY26xBFgYRgFTNud/k2EdL44DHqYQgWI3+ZZl+S5UE7qdWhWUQ+fzaJ8Wu075kOrV6YyPgqtojzo9TWzG2wpbjPICEWXbyr6jlKyok1R7R2QyzMDnfRwYdF3IvVINJ2S/vJ7V9h7h3nICsRA35+7xJ+Hly8t27a+gtLzBRBCAwrjUA+vnFfw+k3RDPEBgLQRYA05lzv8Gei5MMamkbHF1OPQQxwIaRFkO3pOoBvgwh3VO+L5i4m5C0FHov4FtgVe2UDFa5us6kxFBWvgcPO+3WWqqTiPK5rQTIFujlnRPy/LOb25IubaHGBcqET2QjYCDslFDs9CQ4bik4u8l3Ux3uKwAAeNpuaJ/xLYyD1kIApnL8VvM77LmoaQoq3iPEkicTQdoDIvdSaZkwCWmvpLmdCa0UJhdyQsBPSPA9m4GcpyxVuSK4NIDcK2gPeD4JseS2JkYq0Vi51hDuFBLquZF7oRqnPA88o6kwDMbk7BgCtxRyVGMphIV2sT3zBsYMUsP3DwCAp3rVWZoEbzHKhRGvjYOKLECKzrnPOO7R8wPFNxV8SFaMjeAnX2v1xl7ASYWzcOyGW5Pv2fzQPxEOk3YTkNUDIb+DTEgUY0Mm1kOtkJ7Ek1Lx0k4Hz9pXfAyPCLF8yVcoq9Ub9wNP6I6DyfkvhZwMpRpLhr/u+wFf6TOvxRLHaSyhn4+4d5iRfP/89XzbyFter9UbPC/owVwKAExnT+5j/Hn0cRUhdwkgZ13NPB9m//eS0vFdK25KdZYVFi9gkJmCLCer2/vXHt3KbQcQufPu/+MQoyJNBlzO5CdfP1T4vg44dsP51eh+QDFwO5ph5v2qax4eziYrBpiQiEBmUkLj+XSQDY79QFqCuIMQYsmzECAj3Pnl9S5kFR3uSfK0BVlYRXkGuc+4PvpPleqhVMTCjGRByY7ie46sXlUWKvoBACzyi1xXpFV7pYb8N4dWRK7VG4vOuUUJtlyVZ8lFIwumQvP76KNavXGHRVvoN2trIe8gtwVA1LrnWEGAygy9OcRTclOtsU0Ng9lnkBZDWttgsAJ9PBuBV13sMCFRHDmf7hh5uwv0EjblYMggWNIk8Kr993hBBiRTtxL4esf3J0/bPiH0NYKS8DPP1sVaN9RiiPZCADAexlf02bLyLO3H5/x77bRbvhLaRqfdWu60W4uddmvOOfemc+6uDxYzpz7SA1n4CXyhiCALJ3cgNQRZUB0Grcej8QZvgf6WY9G6Mo7JiDPIxGbolhisUigekxIoA9/VIRQHcrMId4atxuIYd8qTIJim7w73/aOtBw6D+fZ2BFkKJGFyKxMt8wSgAeBsLBRSKYpq35mAi28T7Z8vrznnfLuTewRbct6t1RtbzCugp4ggCyVegdTMqR9sRiRoTTMeGZTUWNmDiZ8zSLlEjp1NoUNIp0xIFM/YpMT1AT2boRPf1dG0tztI+pooA4hB22cwqTCUpnNLyJY5qsl3KHT4lOtQCZRX2OxHayEAAJTwcx5+TE8qt2SDLQ8NLa4qk2+hukuYBa6gIAur5YHUzLnf4JijAgSmJqNxtTdhiPFoHFRkMmIEqcZye/ifqAQTEuXZNDQpwepa/Y6YhB/NQFWW1O9nQldjYYXicKoWltGGa6jNwNVYHJXBSmUlILJAABoAAJ0ywRZfseWqtCJKPdRynTALHK2FAEzj+K3md9hxgDoaBye50RyD1qosDHSOpGHAmiBLSaQamJVJidtMHKrH8/J4NH/nUg+yhL4foELjEBIC04TrUR8ZeA8dfvaBSqppl0Se5awswiEADaBKN4ztbapgQA1pRdQLtfQqtaSIMAtmD7KcrG4fcpIHEnKRgURAI1ntrW0AjSDE+DQGkZiMGEBJNRZHVcRyKW77NUjoagkYje/qGGRCXut3biG3JS2hzzGEwUbTdP/PvWNe6JZCjutQJSwFoJkIAoDBCH1CpV6lFmk/dM/QWFVRCLMkroiKLI6TPJCO7jn3CYcbUIuS0XYRZLFDw4TEnlQNQbmsTEpo+J0EirCpdS+mWqWsVm8sKWiJQpBlNE3jcdw7Zshgu4ZrNFX8SmagRV4WVVkAADBI2g9tdNotf899J7EWrIRZElZUkIV0P5CKOfe7HGtALW3X49RL8Y9NKupoewChok4feWDSMPjLvXcFDFVlWZDJZujEoo/xaZ5sTXXAjHOLfpxj9FpTEARz3DdWxkoAmiALAADG+fGqTrvln9XeNBSmndV1zYtfUB4qsgCYzDlW8wBaKQxDaBi4tURbVRZS7nlMSKSHSQnMiupJY1Ia6uxJNdBBqFU/KtbopaEaywFV/KqhvEVe1nVplQoAeBbjLDDH33902q1lqdCSQssh3yaRMEtiCLIAmMyc+w32GKAaYTO7tD00X89tgYoWLjJQjmr4c+qpgX29ktsC2KT1PoaKLFCJewKdpB3ZgoI3x+9HtawEoLlvBAAgIlKhxQdV7xkZw5rFu7V6g8VcCSkkyHKyun2YwJcDwJzrHr/V/E7y+wHQTdVgJe0uxtdpt/a1pefpPfol+V3WMCGRSslQFWQVs4XVHrQXQiy0Trqm+v0i1ApMR8vgOgsPKyRtKS2MjzP5A6BUEui0hip3MK/Tbm3Is+tO5EdzkzGwdBRVkcWR8gcScIHAGqCdwlWZBCEmo22wmYeCL6moxsKERBDa2n4Nw6QEzKO6hB4MDJpCyFURCYLfVvKOOKdWz8J9I+2FACCPIAui4Fv2dtotX33tVsQFKHzb9y0WYKahyCALg+pA5Lrn3O9wjAETGMy2i8FmvbSU4Oaeu2J+EMDIahaLq96K9jiuj5MsjfcxN3Jb4segIDAdNW1b5B4G1bJQyc/RXggAcniWRFQ67ZZv27sY8TzBdUNtHTEDKrIAGN8595vsrWRw824bE912UZFFoVq9sSJpfw34fofB6lob+H7EgeOoA/cAdvCd0UVLQIDFDQFIeMjCvicADaBM5gLR0u4biIpvl91pt/w1/16kR/Zdo63MMIHCgiwnq9sEWYDYnXP/E8c4Gdy828bKO7u0ffdYjf2UppW1nJ8DkJUsFkqy8gCPGKi8j0mwbDH3AHawCEEJOU/cVPJ2uGcMx0IAWsvvKYA4WQtEH+W2ABHptFsbEbcaosVQ5IqsyOId5LYAiMbxW80POJqACZoGLbmRnIBPypt5s2nREmRhcCUsC5MSlIlHDLROvqZWoST1Ck+YHMEJXddhnivCMRGAZgUzAHyBBYGInizQWo4wzLLgnFvPbUU0ig6yUJUFiNVFBkEAQzQ9gFGWfnKaSlEnP4klA7xa2goxuBKWhSALExKIAc8dOiR/D2CIlgAJ311dQRbGaAORxQlNA2+V+0YAZbG2qI2xFiRBqjwvRliU4j1abceLIAuAsXTPcUMHWCF9uYEi8BCga0KClc4ByQO/9qo48zy8wzpaqKEPE61nI0Cih6bfV34vwiLIAiBl1ha1MY6KZEjgdjnCMMtGbguiQJAFwHjmXIs9BQCVYAJPFyYkkMWkBJAuqswBoyU9CaSsih+hwMCkfL/20v1c1wDgKeY1kZRIwyy3aZsYp0KDLCer24/p3Q9E6rz7bzi0gCma2tNgMoQVlKjVG74c7nVFb4kJifAsBFmYlEAMNE7+WSuRHgv2uxFUhSRIihztE6O+kh/3jQDKQEUWQLlMmCWmOX2qskSo6IosjvQiEKE51z1+q/kdDi0AIDHaJiQIOQXWabd2WV0LVILgHno0BUoxnPZrYxU03TeyqEEHAtAAUqWmQtk4COMiVRJmWYnoXv4GId34lBFksXCTDmASF90/YX8BQGV4gNaDIAsG0R7cv5HbAgCGSYU06Eb4jOsv8giyAEiOwUlkwp9ImrSjXIloH6zntsA0KrIAOFP3nPsd9hJgDtdjuzQFWRZzW9KiKsgiD5cIT/2kBCtQAESGc5p+SQexFfbjJ/ysgKxyPlD+Njm/AiiatQAyi8mQPKk+fDeS/XC7Vm+kPp4dlcKDLCer2xZu0gFM4hyVlgAgUQuJH3jaGWAQC0FBHtphHQPKyOKcpl/q31ltYQDCz3pov28kyAKgaNbOK1wzgadhlk3n3E4k+2IttwVmlVGRxbEKHIjL8dvNTQ4pACAlClfWQgnpn32k/HgwKQHrUp8Ux7MIsuiX+iQQ110Mo32MfJ72bQAKZu2ckvo9DJDlAyCnEewRgiwRIcgCYLSLlKQFACRJ24QEFQ910f68w6QvgJgQLtUv9UkggiwYxsIYOb+/AIpk6r5NWqoA+LItYgwhkAUWKMajlCDLyeo2bUiASHTPM3EGGMVKZrtSnwjQQlsQgGCpLgRZgPQw0RcO+3604IO0Uq0sZbSjxEAyIaR9XI37RgBFslSRhXkPoE+n3WpG0mKIqiyRKKsii4uolxYm8S/ZWxH6+6nvAMCo1AeTzZLBToTHpBlG0R444/cXKF5qrRc0BfZ86wsmWvXaS/nD1+oNjddcVpfrQgAaQEoshTu5XgKDrUfQYmgltwUmlRlk4SKQom439T0Qnbl/7v7z1PcBACBJDOhiqE67ta/8oX4+twWwhUAu+lEaerjQIavUx/9SC7lhctoD0Dz3ACiE0nDnKKnfwwADSbXFzUGvGTJv8JyEAcoMstBeCLDuvPtnn/xCk8oAAIAULXDUcQbVkxJUL4BxBFnQjyDLcKEHaFNvi8nvJs5CkAVAKqydT1K/hwFG2aQqCzQoLchysrrtB56Oci8AMKN70f1DjhYAIDUk9jEmysQDiJm2cxxhgeGoyBIWFVkwklTyA4AUWBpLOZKqEwAGkNb31quyEGSJQJkVWRxVWQDjzvEdBgAkiQkJjINBLwCozgKVpoa6PuyFCuzJIHfKCEBjHHuK9xK/wwCKYil4nHoQFxiH9aosIZ+TUBCCLACGOn67aT1xCQDANBjMxTi0r67l9xjA1DrtlsbBfVbU9VFQRY5xP2A8mgPQ87ktADAdS8+gBFmAM0hgfWv0n9KtVm9Q2dO4UoMsJ6vbuxH00ALSdNGlvqoKsI7yxcD0qMiCMxkoE8/vMYDYMAiZF7pKDZNAzt3IbQHyqOQHIGpSOc9SMI4wLjAe64vdeYY0ruyKLI4LAmBT9wIDUoBllPg2T0vpac0lsAENjjgKACKm7T7gZq3eIKT3rJArn48MhDoBLVSPsXFuBVAAS9VYDhg3BcbTabd8GHfH8O6iWrFxBFkADHbO/drA7QAAxI+0PsbF6loAMdN4jqO90LNC3rMw3geMT/s9I5M8AGZlaRyFexhgMpa/M6ErWGJGpQdZTla3uSgA1px3nx+/1fyA4wYAADCS5tW1rKyFZYTEdNBYbWM9tyVtIdvaWC8zPjN67mNcspoZAGJmKRDHnCUwGf+dOTW6z67ntsCUKiqyOONlh4DkdC9QJh8AAMA4VtbCLCb81NAYZLleqzdYVfc0RBHyPL/H91Q1viM6MdYGIGYhw7WTOKU1IjAZacWluk3iKIGfmzCjqoIsJBwBS867RxwvAACAM5l9kAeAs3TaLa3nuI3cljSFbLO0ldsCTQiy6ET4C0CUjFUoY64SmI7l7w4Viw0jyIJCzX3G/ozCOfc3U98FAICkaUzqs3oAABDCnsK9vlKrNxiMDBdkOeq0WwRZgMkRZIEVhOEwKYIsQPwsf3e4rhlWSZDlZHX7Me2FACMuusfHd5qUOwUApGxe4WfX+J6gs+0GABRJY1UWf01cz21NiAR5QvV7J8QCTIcgC6xgwg+TClklbhK+rRBBFmAK0l7owOi+47pmWFUVWRxJR8CG7gVK5AMAAIxDHuQBIGZanw+TDrIEnDA6dc5t5rYCAIAkBQ7XToo5SmA2zB2icpUFWU5Wt7fkgReAZufc3+D4AAAAjI1nHADR6rRbu0rPc/O1emMjtzUda4E+6SYhThMstXhICZM/AGJEWyEgHVbvZajIYliVFVkcFwpAuQvu0+O3mt/hMAEAoE+t3ljisKhEeyEAsVNblUVWASelVm/4gdgbAT4z1VgAAEA/K22FjmgrBMzM6vgXQRbDCLIA+EL3vPsd9gYAAGolN1mHmbBiHkBRtI7lzCfaYihUNZZ1qrEAAIA+VoIszE0CM+q0W4fsQ1St0iDLyep2k9LbgGIX3C9zeAAAAKJApRgARdE88P9eghXLQoR3Djrt1lZuK7Siip9C0qoNAKIh92DzRj4PVeWAYuyxH1GlqiuyeDz4Ahqdd58fv9X8gGMDAIBalnpPp4TACICoSRWOh4o/YzITE7V6Yy3QhFGoKjCYjpVJRehBtSUA07Byf3BAJQmgMHyXUCmCLACe6F5wv8meAAAAmBgD/wBSoHks50at3kilxdBGbkv57nfaLUKbxtTqjcXU9wHGx3ccwJSstBWiGgtQHIIsqFTlQZaT1W1/Y3yUewFx+IzjaBZthQAA6NFaJpMy8QCAIKQlhuaxnPdjbzEk1VgWci+Uy69gTiUkFBuCLACA0sh9V9X3JdM4pT0iUCiCLKhUiIosjgQkoAxthQAAsOAqRwkTYHABQNFCVAOZRLNWb0R5rZTPVfVY2ikthUwjyAIAKJOVewRCLECxGGtCpUIFWbh4AIrQVggAABOoyIJJMLgAoGhNCTdotRDxeJMPEc3ntpZrnXYjphFk0Ulj5UfN53UAelkJsrCoHgAMCxJkOVnd9n3kd3IvAAiDtkIAAFhQ9QQWAABf6LRbjw1MBtys1RtRhVmkdP+7uRfK9ZAy/GPRHBolyIJxEVgDMJFavbFiZHxip9NuscADKJC0nLXmMb8DdoWqyOKoygIoQVshAAD6qX3AqdUby7mNwGAM2AEow6aB1fu3a/VGFKtvpaVQM/dCufY67RYthcagfHKMIAsAoCwrRvYs1VgAOEK7tgULspysbvsH8aPcCwAqRVshAAByND/gMCmBsbDyDEAZjFRl8d6t1Rsbua32bErLpKocGJqcwmg3Rr4KfInJnepcTeWDIl4Ssr1t4APuGa0cAQDICFmRxVGVBVDggvsFDgMAAGYQZME4tFdLAGBYp93aMLIw6T3LbYYkiFPlRJEPsSxLWAnjU3vNrdUb3DdiHHznq7OUygdF1KxUbaMaCwBEgCALivMv2ZfmXHCfHr/V/E7quwEAgD6aB3NpLYRxsLIWQNnWjexh32aoKauHzajVG36S6L0K368PY6wRYpkKlfxgHVX8AEzCwj3gUafdqro1IwC9qM5kWNAgy8nqtr9R3sm9AJPmuhw3a7oX3f+Q+j4AAGAAJiRgHRORAEolkwNWxnNu+sHLWr1hYiW8hFge5F4oz6lUYiEEGR8C0BgHQRYAY6nVGysVtzycVgztJQEgeU5BRRZHiS8goD+sdIUXAACY3YK1VeUIgslIPZhERMzWDLUyuy5hFtWriKWdUJUhFt9OaJEQy0w07zvamGAcfP8BjMtKNRY6QYzHwtgS9zIoAvc6hgUPspysbu8a6a0MxOWS+73jbzX/N44qAADP6rRb2ktO8iCPs7CyFkDppA3NmqE9Pe+ce79Wb6irzuJDqv59VdxO6EAqsVDFazaa9x/3jDgT5wAA46jVGz6gf8PAzrLS/lIDC/cJLOTCzLjXsU1DRRZHVRaget3z7r9ltwMAYBIVHnAWgiwAKiEthh4a29t+EuajWr2xVas3grfskyoxhxVPDu0QYimM5msulfz00TZpuJfbAgCDWQgv78m9KQB8cV5gT9imJciyZagcLWDfnOsev9N8hyOJEZgkBZA6zQ86nKMxkoGqQgAi0mm31qS6hzW3nXMfS6Cl8snlWr2xVqs3fAjifakWU5X7nXZrhRBLYbSHR7lv1KXK7/o4CD8DOJMEf28b2FMbuS0AUse9jnEqgiwnq9v+4ZmkpHV/mPoOsKN7yeQgIwAAVaJMPKyibSuAEJYNL1C6LRVa9n11lDKrtPi/u1ZvbNbqDX+f8cBXzMj9ofL443On025Rcr9Y2nvuc9+IUZjcATAOCwGRHRZ0AOUzWO2Pex3jtFRkcaQlI/B5N/U9YMcF98up7wIAlWGlJ6zSPCkxH2LlOMzQPqEGIEJS3cNymMW7LtVRPpZQiw+crMw6WFurN5bl7/Ln54+dc+8GqMpwJK2EtnKvYCYGKttQkQWjMOkLYCRD1VgI6gLVsDYeyb2OcRe0vP2T1e3Da49u+R69N3MvAijOBffp8VvND9ijACrChCqs0v67u8z3Sw1tD/Ep/16UVkUBwNk67ZYPf6w45z6MYHddlx8fOvGTOEeymq83EHo4ZHXfVbkuLMrPjdyfqJ4fa1ujlVCp9pQc60G0vi/owPMEgLNYWIB+r9NuDbovAwDudYxTE2QRmwRZgHJ1L7r/ml0MAMCZtA+CLMu9M8LTVlY15dUmBFmAwHxJ91q9cUfa5sRkQX4shQJ8dZyNTrvF/UL59jX/bviAWafdoqV7YGW2LZvSEQE3AKP4qnIGqrEcMTYCVMrSuMtBavc6Uk00u7BimH2ppL+vfR+pCrKcrG7vXnt060BWvQAo2pzruvPuP2a/AgAwmqwqH/lnAqNMPIZhtQmAoHz7GrmGbgZooYOnDqQKC9eEalgIQBNkCW/UZEIIlNoHcBYL1VjWCeUBlbIUZIn+Xkdazy9nfiZ+/pbqo7u9H20VrrRVZHEy0BHbyh1Ahe4l1zm+0zziaAAAMBbNAet5vzrKr3zPvYKqaarIktxqEwA6SZhlXwbDCLNUy5fXtzDxFBMLLSmBfjxHABhK2kVqr0S3R8UxoHIEWQKTKn9r8rNQwLtZkOpbTypw1eqNA8lqNDWMMZ7LbQnsZHV7S8qBwZo/5Iipd+HJiQ0AAIxH+6TESm4LQtAUdmJCAoAaUg1kmTGeyuw5514lxFI9A8Hi6wrb2qSIiiwATJDWFNrb9ZzKJC6AahFkCcQvaKzVGz6897Fz7r0zQiyn8nw47Oc092986boUHDms1RtboZ8jNFZkcXKRfD+3FarNfc7xUe2ie3z8VvM7qe8GAAAmsKu8H7QPsqzntiJlTEgAUEVa9S1JWxPtq3qtOpWy+lup74jAtLdKXzEwKRk7TRM/R9rKxkMVgm9YP2OCVIMNzmNAEEtGdns0FYvleXrzjOfpHVmQ6ccF98f97D4cI8fU//Nm38vzvUottXrjYahWblqDLFvSf4/ys0BBuhfc32VfAgAwEe0VWRZ8Kp7Bm3DkYVITgiwA1JHBLr96bENWjqEYpzKguUlbORX2lQdZlgmyIIN7RoxCkCVhsvJe+/2abynENQ2omFRrsjJvbz7kL/vbP0O/m3vxqR1p/zP1Z5XKkru95wRpK7c2INTiAy0r/pm+6vOvutZC7ml7occ8XAEFOu8+P36n+Q67FACA8UlLhFGlFjWgvVBYVxW9l2hWmwCIk7S8eZNWQ4XwK+KW/D7l3K+G9mDATRkMRzjLivY9QZYwCIjAAu2Tv7QUAsKxUo3FSUVQs6RSih+X7g+x+HPgfWkpu1J0Vc5Ou+WDMX6s+VXn3L2+cXEfYnq/Vm/sVvlcoTLIIjYNTBwAJnQvuv+FIwUAmIL2iiRV0L4PGMAJS9NgNC0lAKhEcKbNAAAgAElEQVQnK76WZPANk3sog5ZrVGRTx0IwgAA0ekxP7hhGkAWq1eqN9TNaV2hASyEgHE2h3FEOLJ8npJLphwNavPlnQV+Ze73sz+f/flmIsij/3Sx/nTiUsE3p1AZZqMoCFOjCk7JPABIipUCBWbHCV/8g73WF7W1Soulcy8paACb4CiJ+8I3qLBMhwKKcHBftv88EoMPSMjlMFT8AOTKOuJF7QZcdWgoBQVkJsphd6FWrN7YGtHc7cM69Ic+Cld7DybO7f4Z4Q95Hj6/O8mGt3ij9+UJzRRZHVRZjPkt9B+jUvey+e3ynyeAgkB6CLEAxLIQDmJQIR0uI6EhaYQGAGb46S6fd8vesdxn7GehIyjlfI8Bihvb7xhsseABV/AAMsSUTk1rRUihN2isEpcbKQjpzled8q55aveHH9fqLEtzvtFtLocf8/H/fv48BlVUf1OqNUgOGqoMsVGUBCnCBGzwAAKYlDwraJ9coEx9OZT1hz0B5eABmycraxQE9uFO145y75UM+vpwzlRNMIQCNgaoqvT4m7hsBPEPaWGgPDKxwTwSEI9WgNYfdenasLQDwIRZ5jrie2eyfi+9IJVM15P3c6Xs/70olmVJor8jiqMoCzOCie3z8VvM77EIAAGaifVJioVZvEGYJQ8tgHytrAZgmJYs3Eg60HEhlGt8+yE/UMNFsk4XjRpAlDC2VcA6o7gQgSyan+9tYaHPPV/LjwAFBWRl3tFgcY2tAiGW5026pHOuT9/VG3zP77bLaDF3IbVHGV2W59ujWpoGLKaBO9+KTAUBgGlb6HQJAFfykxE3le3qN1ZXVUlSan7ZCAKIhK203pDyxHyz14ZaFSI/wgQxaNplYjoP//a3VGwd9A9HaPAlAE5aqnJb7RsLPAL4gVQC0Xw92JOyM4tFuEJOwEGQ5shZ6k+fe7JhzL8QycpxPKmlNyv+dvcpW+7NUufLvTyoO7mYq9fg2Q4+Lfs5QH2QR/kCuGylbBOhwzn12/HaT1lwAAMzO34A/UL4fb/pgBRNhldLSG5gJCQDRkUE1f37bkgGytQH9wq05koG+XQmvUB4/Tk3lQRZHADoILYuFuG8EkNVUHhg+oJJYqQiyYCyykEv7/a2TRRBmSHXtdzPvd6wQi5i5+Eet3jjKPJtO/GyQCbN8lNn85Pm9yAV3FloLPanKYrQcUDLmPkt9D+jTvez+Tur7AACAIshE056Bnamqb2oCCLLow0AcECG/qq7TbvlJjGvSj9vCNdnJ5MtDec++ZZAPnK75UsyEWKJmISByU1FluVRouG/c4dyDMXF+SIBUAdDSKncQP6G7xnkLUMFKNRYz42NyL97/flcqrri8IItFtmv1xqGEUiYi7/dO5t+ZH/C5ZmIiyCI2E+yRDEznvPv8+J3mO+w9AAAKY2FSYk1KA6MaGlbW7lCF5xkMugMR8xMZMji5ItVNtDiScM1959xd59ybnXZrrtNuLWWCK5yrEyGDuZp+P4ehTUNFZKJCQ5Vxws/hWblXjbWlH0St3ljrqwKg0RotdAE1LCycs3Zvu9V3f3g3cFskf+3/UK4PE5Fn9IeZf+f6lK2PBjITZKEqCzC+7qVnThoAAHuYjNXHQpBlnqosldKwspYJCQDJkZW5VawKPJCAiv+5l/l5U35elcCKr7Tiyyevd9qtTWt92VEKC/eNKwSgK6PhnvFompLxKBwBEQRXqzeWDMyz3eGchR75nUUgsv+1X7+sVWNZ6auIteefI3N/MIwH04RZZDw6G+Z/r6gKkBdyW3TblJ2hIcUO6DTnulRjAQDzGOBSxq+krtUbO74Uu/K3us4K2/IpWVnLhIQNDLoB5Sgy9HskwQP/s08JexRg08BK93nuGyujoYof4WcAvQnpXeXzaw8tTUijEgRvw6IaS/GyoZUnbdQK+i/4AgdnVQK9KuNUo1rL+TDL7iRVRf0ztARgPsxs3iriPthUkMVXZbn26JY/wO/lXkRY32P/a9G97H499X0A4AkmzoDiNQ0EWeb9gwMDP6XTMCFBtUobGHQDylFERRYfYNngmomiSQDaV/S5rnznrtfqjU3CW6ULfd94yn0jJuWD+7TFi4tU4epvZaGND7EUNaELYEZy3ritfD8eGKvGsta3gHWzwOvt1iTVQeW9bA65LmxMGrDx/+1avfEw8ztzo1ZvLM9asdRMa6Gek9XtDSO9ZtPyvW7qe0CHOdd1F9RfWABUg4kzoHhNGQjWbpNS8aXTMCHBxCtQrVErllChWr2xXsCA6n0f/CbEghJZ+N2iLWXJ5J48dKCpSVgJU6DdcUTkXLSrPGB5QIgFUMfCfaK1e9ls9RhfaTlYNRl5Fl4cMtY97cKR/s8z8+czF2QRlL0EBvDVWI7vNAl6IRZUFAGgigwAW2jlwqRE+YqoBDALVk8DSI6fhKnVG/46/P4Mn90P0t3qtFvrnEdRMishqXUC0KUKfc/oGEfHlAiyRMJKiEVJ1VMAQs4d2scWd2at9lGlAdVYgt+jyTPxoOPsK35PfF6W6jIPM5tuSHv2qZkMspysbm/JxQ1AD9VYUCwND6yDSpoBQGhWynIzKVES6Sse8hpFeXgAyZFBtP0ZW/z586cvbWwhlArjZFD4oYFPMc99RalCT8w+pD2MDgafzQiyRMBSiIWAcRBWvueEnMJYVz4/czpp6xsFsgHnIy3VQeV9DKrKMu13rz+gMygoMzarFVkcq0yBZ1GNBQVbYIcCQF6n3do3EqieH/DggGKEflCmGguAZEgVFj/J/mEBzyjLch0HqmKlKsvtWVdKYqjQFVl4HtDDWtVhJo6NI8SCMTD+j4HkvvC9Qa8pYqrCppyTs4sytD0nDHpOniqEKyHqncymmcZRzQZZTla3/UV4L/cCgpj7jP0eFNVYAACokpVVq+9K9RAUK+SEBNVYRmMSDohIpgrLuwV8qnuEWFA1KXVupaK0ldCNGbV6YyXwSmaqsWAWN9h7dhFiQWR4zq+e9nGnHS3VTCbQP5Zo4f3PMqacrYI6VZuiHssVWZzBskFAKajGAgBAdeRhycp1l9BDgSQYFHLVEtVYRmNFGRCBgquwOCnbTFUChGLlXuyGBC9QHKqxwLRZJp0QDiEWRIgFWhWSc/8s7VzLZrGlkOu7LzxQGDbezW2ZTX8736nvi00HWU5Wtw+N9JsFykM1FgCDkVYHymUl+e8nJWjJWZyQD8tUYwEQPZlIPyyoCktP/yAaUBljAegtmQBFMUIGWe5RjQUFINxmjCy8IMSC2Fzn/qQasp+1j3euGD1/ZMOhGp9PCw2vyjHKdtVJtiKLty6DukCSupfc/0g1FgADEGQByrVp6B50Q/rbYnYhB3NN9f8FgEn461St3vATL9sltOIgyILQrFTGmCc0W4xavbEWsK0Q4WedLFYUIMhiCCEWTMJgxSUqRFVjU3ml23vSutMUOT9n7wutfIZZ32f235/62mQ+yHKyuv2YUokKfJb6DgjkvPv8+FvNfz3Jzw4AQEAy8GJlgHjeUAUZtaRKQKgH+j2D/X8B4EzSRsiP6Xzsq4iVtMf2c1uAChmrynKbFkOFCFnFj/CzTharCSzQXsgGCc/tBgzQjeMhIRbMgHuTksl5RHPnhz3D7WKfCbMqDeMMehaf9Xz9zOec9p4ihoosPsyyaeiBEChM9xKttVA8SYgCAM5mqSoLLYZmF3L/cewAREcmy33I5L0yPxsTJlDC0sA7LYZmIJUQB00GVIHwM4rGc4hyEgh+oD3E0mm31rgnU8XadZ4gS4lkPkjzYr0D478D2SrZe7lXA5MQ0yCzBm76F5RMVS08iiCLGLajgTj5aizvNN/h6KIEDFihSASjEC1jVVmctBjiOzmFwBMS9zvtFtUE7OI7B/TpayNUeqUrrn3QwFhVlnlacs0kZGiJ0IFeVq9FN2lTq5NUtWuWHQguwF0fYrG5l6Nm7Zw0P2KyHTOQ8HJTcRjOLyC0HoTLft9UfQ45/oPuXY9mHYuUY5ZdAJp2kOVkddsPguzkXgAi1b3o7nFsARhAMGpCTLaYY6kqyzwrbKc26KGuCke0UR2P4nOn5pWRQKVkwmWz5DZCgzABBy0sXdNvyCp/TEDus0OV5b9H+Fk1y89gnAuUkWcf/32/qfht+nGSO512y9LiH+hGkKVgct+yG7CN9jiWI7i/yd4DqPks0upnf8jxL6rCX/bzTnUvdCG3xTafOl9msLBac5+l9GmVuOgeH3+z+Uup7wYAI4WqHIDZETIwxKfLpWXPAyPv+ro8jFCWdUyyAjHUhATll8fHuROl85MGTBJOR1ZQbgYar1mmugQ08FVZ5L7xupED8p6vnqS0j79WoSqiHHTaLcIGullesHK7Vm9scS7QQa4j7yt/m35Bxgr3zaotG3zPN3geK9yW8vvSOxzviSzV6o2z/vySLPRYHnHsT0uqQD7VvVBMrYV8VZZDY+XdgalQjQUAAD2kVPyBoUNykxW2Ewm1r+4zWAyoQ2BqQn6wWdoIPQi46IjVm9DEWuuXJhUjxyPh51AtPjjP6Wd94S1zLoFlWjNqD7Hs+clKJp9RElroFcQHFJVXdboj460xyFYILfPc6K8PH57x4//MuyNCLE6q4KhZVBdVkMU9DbNsGOo5C0yse9l99/jtJg8PKJOa0tv04QVgiLWH6ffoL3w2KbMZohqLX1XLAA0AszJthD5SUClwXlYvA8FJSPWhoSNBa8rxhQo/32XCWDd5prDuukx6IgC5j9k3UH3ZL8ZQNQGKoaxW8r4dyTk1GHlOawasPDyOmEIsrq91j+bzo6/Ecqvg+8qZ/67ogiyCQfkqfS+dj6rCBX6/UTpN4RGCLABMkEmJ+8aO1gNW2J4pRHj4lOcZAJbV6g3fvu5QVnppsUFIHoqsy/XeCr9ic5cwy3ABw887nXaLxW76xfLMdZvFENXqq8KiuapPb/KT4LABEdwTU2F4SnIvt0slFgzQq6ZVdEvemc83UQZZTla3/RdxJ/cCyvG9Lju2It3n3N7xW83vJPFhAUyNQXogmA1jkxJOJiUIswwg7ZdGldosyzqraqfCtS8iTJbalFndt61wsmVeWqTwu4XgZKW6tUkYf0/EpMIAcl4JsW+OCD+bEVP1gAeEWcon91T+OvGxgcoZByVNfqI81seAbnAempyM/e0HGucaV6whlr3M/9b0/fP3kvecc69KNa3D3J+YXfb5e6pqNLFWZHFyI29tIgEYbs513QXV5b4QDwZ37WMyzzZCBUbJpIS1h+l5wix5sj/ey71QvvusPJma2msfAdOpcE4yJlOFRfPqPqpKQA2porFn7IjcpLXIQBt9JeOr4Me8V2jfYUZsbTB8mIWWYyWRCfrDQM+jk/LPr0slTX6iPDE8a23ynD0+Oa/sBrhfmUQqlVjKvHbedc69OeRnYF6i025tVHgOn2rRXrRBlpPVbYurG4Chus+5v318p3k07HWgQEwcAGExGGSYrEKyVhmQMEtGwFW1e5RijhYDbPHgGj2ATGxrrMIyiA+zHErwBgjN4iK824RZviTnkhBt1KjgZ4T8jli4Pk7qNs+QxfITzbV6w08mPjDwO+OvXW/y/GpWDPfB81SKO1umYqbm84o/n7zBoq5C7PvW94N+hnxfFqQ9ZplmHkOJuSKLD7NYXN1gztxnqe+BClx0j4/fab4T/eeEFpoeQpn4mQ4DCbZx/Oxbk/KMlvTCLLGtFpzGZoBSqweRDCaFxO9uXLQGRrhG96nVG+symWWJv+Zt1+oNJuAQlKx+tDgJ6MMs+6lXY5Dzx6BJgbLdY7LHlJgn+v0z00e+BU7q54NZ9AVYNFdL6PHzbYsyMQpjpIqJ5tYyk7hBuHY4IxUz/djpcgLh3OznCzV2tZnb8lTZBUGy5xsqsgxBrzSY173g/n2OIqogN7Oa0rkEWaajab8xsTg5TcePyZ0pGG0x5OT8/2HKvYalD3nVE7J+9ckapeFnpnnwnPuZyXH9scPyBN0NmYDblUkkJuFQOQkkPDS455Nu1ZWp4Ff1+MlDXwI+txUqySKBGwkcnfek2hnVOcYkVRKsBVj8c+vdTru1zLOrabGN99zm3PMsP78jVVi0V8z0obilRCrMZVv3BBkfkgD9oGeOG2UtahywaGSqFkbRB1lOVrf9jrmXewEwonvZfff4nebf4nihItpCB0xiTIeqOkbJgKimlRE3mdSZjqxOsnoP+kACHUmRAE/VfchPE1l9UiqF585+XAsnp3WfcSwzZGDKwsTLWW7IJNKJhFo2qFCGiq1LdTZreq26knpul/uO3RAV/DrtFgs2jZDfk2Grn2PkJ0vfr9Ubj6nQMpxMMG/KZJ6VAIuTa5SfcE7pdzo68r2MMfTxvnyvkiYBOT+W97HyKize/cRCcdkxvwVZTB7CsLHess4LzzwjTDv2eSG3JUInq9sb1x7dWomoZJYu30t9B5RoznXdRfeT0X4+aKStrQEDyBOShxJNK378zVkq6eoiaGwtsj7iRhcj+NWSMrCv/QFykPfkvSdRKURCLA9yL5RvjfNjIbTfL3A/Mzmtk6K0AHtWjJNUN+THXwedlLs+lMHHx/KTPW/vsyoZs/K/Q3Ivsqt85ewgvfaU6ym0uwkZYuF+wpwQ7Uo1mJfFAf466ld+NzvtVjPB/fAFOW+syNiKtd8Jv/Bik0pQ0dgweJ8xrnclHJBctdtMQGndwPH155Qk7hmz/GJHebbsWQ7RntJXZanVGzsDxqn9QtZFqdpSpOy96960f28SQRbhHwg/ym3F7AiylKZ72f3a8Z3mUaQfD8rIzZ62ydZ5P6BH/+eJaJxgWYu8L3SRNK6wW/c9Z0u4mU3FWqDB7iL4a8K+nIej7X8tK3fezb1QvjupD+oWSHu4gApzE1BeYYd704wBA3IxWpCfoUHxvn2QHaA77CufnL2WHnJvhSwfbJUwy7bBHTMvFf2WZXIiygkkGTNphgqxEJqzIVOJpep2pRrdlrYfR/Ld2U3l+UfOF8vynGJxYYuTe5o17lfiIPcYIcY9qnSz1+YskXDtkoy3W7neHCS+mOsgcw8ZJMgiNodclzZKmJfIjtVNPa481+12cxtjde3RrY0A5cKjd+730vkdqtRF9/iTn2teS+gTIzA/Ua30xmfPl5rLbcVA0l9XW2nSUylBysPvCDLw++HwPxEU38MZyMOlxRW2WfdiW4UVeJD5DhPhxZBB4o8NvNVbBJfGE7BC0riOOu0WLYaE0ntPi4YFYLL/+zFVvOInJeEtj10eySRFVCHogPfzhFgMkd+TLarCj3Qq36VdCbZEc12TMZ0VmaC0/DuQZMWEmEVwbzGNIxnv2YrpGmq4wtN9H5RI+X6mbxHdaafdmqm6aa3eGDQx/+Y49+C+ne6QhRqvFjV/I/dE2eIiY723QZIKsrinYZZ9biaL88K5y+7T//ufx/JxVOm+4H7m+K3mB6nvB1SjVm+sKF/5dZc+rGfziXPfF1Tp2/P9vFmRPkKt3tB+j/KQnuzTiyTMEs3ERMAVtY4QS7Fq9UZzyGoSbQgEjmnEoIom0YX7pmXoOxiboyFhl941moovhileZDKJaCYsAj5nE2IxQp4tNqjCMpVTadm3K//ct3D9kuf7XtWVJQP3ruNKfrI5JhKuSrXNWdZOpiqUuftj4xWe/Dl+JeYqz+MaEOyYabHTjEGWYXOB9zvtViFV9fueZ2YK7qQYZOn/ZcEMXr/8ivtHR/8nu7Bg3cvuHxx/q/njUX0oqGVkcvVUBnBYgTiEkeP4MOZS07MwNFhNmGUGBqoMjOuhDG6ZnCCT47AZ4HzJyraCGfxOEcw9w4gBFY3u+XNJ6vc1yoPUeKpX7cU/Sz3O/jP131/NIgmJmb73kVXPW4GOAyEWA+S+ZY1AZyn2MkHNINctOQf4sbbePxflJ5bQStaenK8ZdzVOQg+9ih1UTcw76oXmegE6bddaOYZLmfCK1eO4I4vhuJcRfdVMZ1rsNEuQxeXfS4+/d1+c9ZjJ9fMwM+46U0AmuSCLo8VQoQiylOC8+7x7xb12fKd5FN1ngzry0L1lpEIAYZYhjFV6SL0f5jMCD45O60AGOJJP008jojDLqYRBzEziymDAVqCBR65hBTM8eU5FniGMVq46lfPKZqrVLwy198JwBzJBuJsJuhByCUyeE3YjWUV9JM8PZlrsBQw+OyZ+dJNxtN6P5WqblvWquLjMdatfL/zSrxdK6dcLqTj5ZyoBAHPnZzxL7heWIwg9hLbXdz4pvcqhPEctZgJzvQpP1q8tnFeGGNDma+pWPgUEWYaNT89cfXbA53xjlvHQJIMsjhZDhfnR515z//DwH0fyaXToPu/uHr/dZKUmSmW87Cml3DMG3BhYYbqiQxHkhnHD8ENmlP1mqzDiYcGi08zvgcrvswzsrMtPiAGBIymlSoilAIEDSUWhkkdG5jtqfbHJnvxuNlM7tkbaQWFyp5kVq71wC9eyCkUWZnFyT7ShOdApbRg2Ap7TqICpRN8EY6+tA3MJiMWpnI+ZgzAmE1zpVezgHrxaB0NCci4TfskaFJ6L+ZjRnmwE+f6eZP7E1Pd9swZZ3IiqLLO0ARpQjWXmNtspB1loMVSAn/7KT7i/94//V/OfQ42L7v/65Oeafzz13YDyRFT2NOkJdLkhWIukTOSOTPrspnAsIzt2Wb1+s8lN3k0rsjBLz0M5L6uo1qMgwOIoC18MOZYrRntCD3Mk1z+1IbCySQWW9UhXNCd1XYz0mobh9jLl2JO4hw8pwjCL03gNVBBgcbQgrFambcxi389VAiuImLnKqqnKhOkWM2G6lKoFwRbak42pVm9s9S0unyh80lNQkGVYpeOpKwkPWHQ91efLSjbI4p6GWYYdJIyJIEuB5ly3+4J7lZZCKJIMxixHntDeyQyiRnmzlFDa/qh3LOV4RjGxJxN1vRKfKayU2MscQ9oPjRDxxN+RTOBuhTgvy7VvTUHVsYfyIM8A4YTkvLmUuYeJfbDuoO/6F+XvTMJlrw/knBj1dXHIai6k4SAT3GLwugSRhll6ggX/MkHZ9cD79lRaCVGCvyJG2xkCsyDAooych1bkXfVay7hIWssgHeqr7WkzoDXvVBVLCgqy9FdP6TnqtFuLuX/hDPLZ9ousxuJSD7K4p2EWSuDOgCBLcbrPu18+frv5i7F8HlSP0oJf6K0QPJTy16YmDDKJ+96xXEp4UuCob7WniYFxOYbLCU3AnmWPkvTDJbCKvRdQa8rxLzygpnRynBW1Y5IBvMXM/QsDd19e/3o/h9bOnX33M73jy+rmpw76rotRhFuoygJB68mSyP3OptH2wOMqPRCfeVbTUuXtQEIsPCNVZMSkDRAjAiwKDZjsBazh3DKDWr3h9927mb9h4jHEIoIsbnAFlZ6Jq7IMaDk8czUWR5DlSZCFi8YM/vpX/w33S7/5gdn3r8Yl93uf/Gzzj6W+GzC+AZM+lBYc7UgGKnbln4caJg2kasBiJrDC5N3ZeoOb+2VNik8iU444GyLjGJ7tmcCZHMtkH3wSWxGYnaA/zIQOxzr+sq+uKu5V7z/fCpMRzxpQur33vwk2TOYo873pXf+y9zOHVV0XM8fUyfew90/K8U/nNHNufCzH9bHBANM+xx8ZD2WFZpLt08oyoBx5zPYy17wn17sJV5kuZ+4bNS4SoXpfAIl9h5AugqWKDZjsBSzh/mVGA0K1p9KWfOzn/wKDLP69nORecO6g024t5bYOMaBN0U6n3VoZ/Kcnk3yQxT0Ns/iduZ17AWfyQZb/7B/9XffZ55+zs6ZFSyGMQVY4rjDpU7jehNBGFcGWWr2xIu0uUq6yUoa9zHEsfaBcBkTXOY6F630fN1Msqy0BjS3O8V9M5mZZCfntyIpaHub7MFBXmanKv06DY1qZVy2FAOQe6cPcC0gdgZaCUQHpCwcS/uuxEqY8lQkgyvBXjOsUErAn4RXOL0rJ2DBzkbCIe/oCDTgXHEiYZdyFfoPCHVNVQBkR8h3r75Mx7Y8ym/y97mJR46PnclsSdLK63ZQvIabw4sXn2W0z6F5x/ykhFowi5QYfSNnb1Cc4i7YgkzDrZf+HJN26LceR8EOxbsjNViEp3zGscxxLUdn3USNJ3S9LGCJl8/J7kP3RHmI5lTKgK4RY8uSBlsBDNRZkf5eKY1qpmftJV0kGue5bes+ohL9P/9iXrZZnIsxIJijflHuQlF3vu2e0MF7iJymWmGQOJslnTSTBz2290Wm3ljm/qEcLYljzUBZYrBFiKY4s4szmEq5LW/YQNob8N4dt/4LMXfaHXQpd5EeQ5Uvr8jCBCbx+6Wvsrllccr93/HbzF+1+AFSkqsn5lFUxoMpxLF9VA+MMwKMU/iZfyi7eYw+bsSeTEQxGDWdqIj4CpQdZOKaVqqTCTsE2GFvBEL73+r5URMCMJDi2xPfNlHu+RDuTQGHIRMvNFD87ouUXxt71DQdkgpn2tspJRTUWxcEKAizl688l3JDqKOPYG/AzVXhEju+9AX9f7/5pIFmk0OxbgHi/6ErrF3JbEnWyuv342qNba33lb4Dy+JZCl9yPs4cxBgb64jD0oo/CVBUwYRU6StVptzakbccWgxxqURJ+fFUEK/ClKu43uDetjrl97UOZMki/a6QtHKrl72s+rNUb96U0OZXMZiCDzku+2o0EhaDTnqxMZRIoLKqxIAanMmm4SXDFJM5D0O5UqgZtcp9eviHPzrdr9YZ/bW3UG/AVuHIbZ+DHoif5tyXEsttXEXGv024Vfp6jIkvGyer2vqRYgdJ1r7hv01IIY6L6QxyY9Ckfk6Vx4EHp2VW2tL/U5570eiXEMh6CnPHh3hQjycQKA/UY5V0/8FlFO7QUyMDzm7I6H3r44/GmtPogxBIeVXJhmW9BfKfTbl2l+opNUpHOQgs8pMnfs9yRsS7C5hXKtJrPtgz1YZZdrW1Z5Rluv++cdlDWvRZBlj4nq9ubcmOAM7x++ZUnf+D7L6LFYEUAACAASURBVH1l9B9ETvey2z9+u0kJeoyLwT1gPNxkx4EBGSGthnwC/xYTEyr0yqryUD8ZgizxIciCM0nY7w57CiNclzALgf8CZELQ981/GPuOZMJ5UY4LApPzDJUuYc2O3Ev51kErLKQwb2R1BSCQHQndPlmsxVhXGEPCLDc0Bv9r9caKVGLJ3lf5EMtyWb8/BFkGW2OyYHx/9DLjmBO54D51F1kFgIlQkhsYDwEIREl6izIxEQ59gWfDpEF8WEmIsRBmwRjmpdUQkzsFkBD0ulRnOSj9P4h+p1K5b4kJZ3UYh4UFp4PCK0ws2ydVFTgPQYsj6UzyqpxnCN0qMCTM0gv+B6926s9jtXrDF2fY7puvLDXE4p5MqSPnZHX78bVHt/yF5aPci8CMupfdHVoKAQAwFIGkAeSBYL1Wb2xJv9ob+T+FgvkAywbhFQCYnp+A8T2+nXMP2I0Y4YH0gmfyvwC96iwSENpkcUzp/Bjfk3t0JpzVovITtDqQle1NJpOjtsK1GIGdyr3KFq3J9PLHRqrIbWUWEPlzx/tSCWU9xPGT//bmgIVqD+U9lXr/S5BliJPV7f1rj275VNr7g/8EXr/0teT3waS6V1zz+K3mB7beNZAEBpviwHGMA6GBEXoJ/cyDDdUuikeABZYxKBWXKCY0MmEWJtQxCmGWgsl3z1f2W5cfvn/FOpJ7Rn5n9aOaHLQ4kvu7Jz88cyaDMB1C8OebppxrmhwBG/rCLDczb9ovaPyoVm9UNmYp72NjyGLKu512azO3tQQEWUY4Wd3evPbo1nLfLwv6/KkXFtyvu9/KbUefi+7x8TvNW7ntwNmOmKgsHZM+ceA4RoCVAeOR1VqLstJ2g+vEzFhJi1hU8fu7N2QgAxhKJtT3ZTCVaxaGIcxSMLmv2ZBS4P7ndlQfMIw9uWdkUsgAmYQBQiG4AkdbIVToQJ63moyv2iX37ytSCWWrL4zu7+VvS6ClWcb9qIw1rw0Z9/G/Y2tV/n4RZDnbmtxokNzu88K5y082XLvwfbnX0GfOdbuX3VJuOzCeQwZ7S8ekZRyqGhA44L6gNPTyn5BM9GzJQ8Y6v5sT25PSqkyYIRYMjsclqsFHWV22NGB1GZDlwyyHtFgolgyIr0mPfSq0TO5UJoao2mfP1dR3ACpzKvduu71/skgCtXpjkestSpQNyzU558TFh1TkHDIojN4LtMxceadWb1yVwN3yiFZopxLk3si9UjKCLGc4Wd1+fO3RrV6YZdDBS9bCxZdT3wVj615x3z6+0zwy8nahDzcg5atikmB/SIoVxTiqcECR72R5mLCYUibQsixBbFbbDtd7yNtkIqISVO+ozim/09GJ7niesboM6PGDtkuc04rXV6GlF4Rm4cxwe3KuYnLILhYWogwHcp+23/vhmoUhFgdvBqZy0BeW47wTuUwYfUMqcveP9/r7+Hf9j7TzPZDfj8PMT78lCfouyc+oZ4FTCdIEq2BNkGUMJ6vb+9ce3fIPdg/Uv9kAXrrMuNMo3efc3vHbzUp6hSFa+6xYLF0VQZZBNw0oTpUBCAYwy0OQZUayenlXHnB6pSBHPZCkpLSym4ASVVXv2CWcVI2Yy0GfsboMmJfQKRPQJZGB6CeD0gShc3otJ7eYIIoCz++YxZ78DvUCK4e06wBQkWxgbpdqhWmTe9JeoGVd7t0HTc5fL6ha95E8K2yFDnMTZBnTyer21rVHt5Yk2QTn3MvnX3zyz5cuvcjuGOaie3z8zSa9WDErP4D3XuC9eFDiw//SkItuVQ4quhhzs1muKtuCVB0uOw3UWiDEd5PvSUHkAWdDVtwuyUPOsPKQMdvJ9AdmEDsMKpJVp6pzKN+lauzE/gEzq8u25JrFuQJZ133VkE67tc5eKVcmCN27X1xJcDFNr2LfFpPU0eEZE8McZRad7Wb/yYQxgAr1zkW7vQoanIMwjIz3PmkTKlVOey2BiljE2Kv4o+p+eK7b7eY2Yrhrj26x+kz82g9++4v//W+1/0bu9eTNuW73BfcqLYVQBN8jfMjFaNgE9+GQCiCDboIeax6okZWag8owXh2yQm9pSA/kxSH78F5Vvf1GHMeecQNDg45jv8dDfjdCGXa8Bhl2zHv6j+Vep92qLDQoN4nbA47XoO/doG09+5Yn1mXlZr9Bx3nQNjfgfuphp91ay/0pFEp+f3s9T0edj6w67QVX6EmuQ63eWKOyZWXeqOKeTsJxH+VeQNHudtqtpCp7yr0FgRb0e5PB/OpleuXHHGo5yASeCa9gIPkuDHqenVRRf8+g5/BphF5UVrS9vr+vfyzmi+sI1xRUTULbg8Y5h/0unjUuOqnYvu/WZOdvsqE51XMysEXm0Jbl3NG7Vxj2XN37ncxWHFM7hkqQZULXHt26Kgc1+RLt2SDLz/7mf+H+n88+zf2ZlHWvuG8ev9P8W6nvBwAAoJM85PSCLcuGBzb2ZBCASQiF5PfsY0XvrH+QuyjDBgiq4ivMVdaCo1ZvPFZyzijjeGoY6PUDS4uphvEk0LJOe1WIo067VeRkDqYg38vefWMR5cpD6AWed2WwftiCAwBTKjD4048JX6AisnBh0CLRfuMGbsb5+64au7/IPodmF5Nm//ch9xrA7AiyTEFaDO2mnGJcvPiS++WX/uoX//+v/favuD/49J/m/lyquldc8/id5q3U9wMAALBDBiuWZIJiSfEgwl5mAmLYCiYoUqs3hlW1HBZCGHZc90dULlM/SDSiypwbsrp20J8fVmGu0ooFsqrwdu6FLx0NqUg2rFLZwPeu+Ts+pDKZG7HietAA7rAB28oqBmom35lR/b+RDr4TimQmqnv3jEtDrk2hHcn1pbfKlElwAACMG/EcVgrGnYCwCLJM6dqjW0mXyH798ivur//A6hf//z/43/8rd/jP/knuz6Woe9l99/hbzddS3w8AAMC+TLhlMTMJOyiQUIb+PsH7TEAAQHpoUYbUqxRZkAm3ZO8bh4Uvy3DQu1/shVf4fQEAAABsI8gyg2uPbvnVIO+Z/QAz+NHnXnP/3vf/pS/+gr/5u/+9+/Xf/y2Dn6RgF9yn3efc14/vNI+i+lwAAAB9Mqtg+qsPDKo6MEqvykavBCtlowEAz6jVG4e0eE4eVVmM6ms1kr1PHFbBaphnyvX3fijbDwAAAMSJIMuMrj26dVZJ5Sj99Fd+4slPz6/+7t93//PvH6S2G54157rdy+4vHH+z+d/lXgMAAAAAABOr1Ru+vdD77LnkUZUFAAAAABJyjoM9s3UpX5m0n5j/k6nvAte94r5NiAUAAAAAgGLU6o0NQiwQ8zIGBwAAAABIAEGWGZ2sbvuVIMuyMiQZixdfTunjnql7xTWP325uKn+bAAAAAACoV6s3lmr1xn6q7Zwx1NqwFwAAAAAAcbnA8ZydD7Nce3TLh1l2ZYVI9J4/d/mZj/j6V15J4WMP1L3svnv8TvPWoNcAAAAAAMD4KmwldOSc25efx/LPaSw5564O+PeW+/7/jdyfwKQWavXGSqfdarLnAAAAACBuBFkKcrK6vX/t0S2/MmQ7ig90hpfPv5j7AxfOnXef/+H3ctujdsF9evyt5mtpfWgAAAAAAIpVqzcWnXNbJQY+jmQBkg9B7Hbarce5PzGd3Un/LV9xJhN+6QVeetv8fljI/UvoWZNjCAAAAACI2Fy32+X4FkjCLA+i+UBD/NoPfjv3wl/77V9xf/DpP81tj9Z593n3invt+E7zKJ0PDQAAAABAsXyVDQmxlFHl9qH/uzvt1sSBk5Ak2LOYCbgsE3L5wrUCg0gAAAAAAIWoyFKwk9XtLWkzdDuqD5bxQl9boZ6XL19NJ8gy57rd59xfIcQCAAAAAMB0avWGD2hsljSGck8CLIe5VwyQ9304qOJLrd5YloBL7+d6Yr+Cy1RlAQAAAIC4EWQpwcnq9tq1R7dcrGGWhYsv57Z5X730ldy2WHWvuG8fv9X8IJkPDAAAAABAgaS9TrOECiN7vv2M1QDLOKS6zDMBFwm39H7Kas+kxQpBFgAAAACIG0GW8qyntirmG9/3mvv13/+t3PbYdK+4Xz1+u7kZ/QcFAAAAAKAEtXrDj5m8X/DffOqc2+i0W0k+r/eHW6Rd04oEW2JrR7Sc2wIAAAAAiMpct9vliJbk2qNbV2UQIaowy09/5See/PQ7+vT33S/+9t/JbY9J97L7B8ffav541B8SAAAAAIASSCuhZgkVQ6KvwjILqX6zLsGWebuf5BmvcrwBAAAAIF7nOLblOVndfiyDBKexfsashSuDWw7FonvZfZcQCwAAAAAAk5PWN4clhFjuddqtZUINw3Xarf1Ou+WDPj5IdMc5dzD0D9uxFMFnAAAAAAAMQZClZCer24dS8jSaMMvrl1/JbeuZv/xCblsULrg/OP5W87U4PxwAAAAAAOWp1RsbzrkPC64GcuSce6PTbm3kXsFQnXZrq9Nu+RDIm1LJxiqCLAAAAAAQMYIsFThZ3d6PLcwyzA9d+YEhrxh2wX3afc59I74PBgAAAABAeXwroVq94Vsuv1fwf8QHMJZ8pZHcKxhLp93a9ZVsDAdaCLIAAAAAQMQIslREwizrMXyW1y99Lbet5195/ody20x7GmL5+vGd5lFcHwwAAAAAgPLU6o2lkloJPZRWQo9zr2BimUDLHWMLsK7mtgAAAAAAokGQpUInq9tbMjAQrddfGN52yJw51yXEAgAAAADAZGr1hl/I81HBrYS8O512ay23FTPzLYecc4vOuR0je7PogBQAAAAAQBGCLBWzHmZ5/fLooMrrXxn9uhk+xPK8+8uEWAAAAAAAGI+0EvLjHu+XsMvuSNgCJfFVbjrt1opz7i77GAAAAAAQEkGWACyHWV6Yu5zb1m/+8gu5bab0QixvNT+w/UEAAAAAAKhGrd7w1Tx2nXO3C/4P+nY3bxBiqU6n3dr0+1x7qyEfnMptBAAAAABEgSBLIBJmeWjtfS9cfCm3rd+f/L4fym0zgxALAAAAAAATqdUby865fefc9YL3nA9SLHfarf3cKyiV7PNl5WGWpdwWAAAAAEAUCLIEdLK6vWYtzPLS+bPbW9e/r5bbZgIhFgAAAAAAJlKrN9adcx/6Aq0l7LkVQizhGAmzAAAAAAAiRJAlMGthlpcuvJjb1u/rX3klt009QiwAAAAAAEykVm/4arPvl7TX7nTard3cVlSKMAsAAAAAIASCLApYCrO8fulruW39Xrr0onv+wuXcds0IsQAAAAAAMJ5avXG1Vm/4gMPtknbZvU67tZXbiiAkzLLG3gcAAAAAVIUgixIWwiwvnBs/nPLGVSPtheZc111y7xFiAQAAAADgbLV6Y9E55yulXC9pd+102q2N3FYE1Wm3ms65+xwFAAAAAEAVCLIooj3MsnDx5dy2Yf7VF394yCuKSDuhT362+R/pf7MAAAAAAIRVqzeWnHP7JYZYjqj8odqGHCMtHqd+QAAAAAAgVgRZlNEcZlm88FJu2zDfuPrakFeUkBALlVgAAAAAADhbrd5Ylkos8yXurrVOu0U4QSk5NmqCRtLyCAAAAAAQIYIsCmkNs7x04cXctlH+xFf+2IhXAyLEAgAAAADA2Gr1hh+n+LDkEMvDTru1m9sKVeQY7XFUAAAAAABlIsiilMYwyySthbyf+v6yKg3PgBALAAAAAABjkxDLg5L32Klzbj23FVptcGQAAAAAAGUiyKKYtjDL65e+lts2irr2QoRYAAAAAAAYW0UhFm+TlkJ2SFWWo8BvmKowAAAAABAxgizKaQmzLF58KbftLM+fv+x++MUfOuNPVeSC+5QQCwAAAAAA46kwxOKrsWzmtkI7jhkAAAAAoDQEWQyQMMvdkO/0pfPTtcH+C1/9Rm5b5XyI5Tn3dUIsAAAAAACcrVZvLFcUYnFUYzGrGfiN7+a2AAAAAACiQZDFiJPVbb/S5U6od7swRUUWJ+2FLp47n9temV6I5U4zdMlbAAAAAADUq9UbSxWHFLZyW6Bep906dM4dBHyfh7ktAAAAAIBoEGQx5GR1eytUmOX1y6/kto3rz7/8p6t+u090L7vvfvLzzecJsQAAAAAAcLZavXFVQizTlWWd3IEEImBTyKoo/N4AAAAAQMQIshiTCbOcVvnOX7/0tdy2cf3kV69XvpO7l9xvH3+r+VruBQAAAAAAMIwfc1gY8loZqMZiW7AgS6fdorUQAAAAAESMIItBEmZZrirMsjhlW6Gely696H7s+384t70s3SvuV49/tvl6Zf9BAAAAAACMq9UbK865mxV/CsIItu0HevchWxoBAAAAACpAkMWok9Xt/arCLAsXX85tm9S//YM3yt/Rc67bfc79h8fvNN/JvQYAAAAAAAaSlkKVV0fptFuhghAoQMC2UASgAAAAACByBFkMkzDLUtkrUV6/9Epu26RKr8py3n3efd795eNvNn8p9xoAAAAAABhl3Tk3P+L1MuxxRKIQojoKQRYAAAAAiBxBFuNOVrcPpTJLaQMHP3L5a7lt0/BVWS6eO1/8G7zgPu1eca8dv9X8IPcaAAAAAAAYSqqxrA97vUShqnmgWI8D7E+CLAAAAAAQOYIsEThZ3X58srrtK7M8LPrTvHT+RffV8y/mtk/1d1160f35l/90bvssupfddz/5+ebzx3eaR4X+xQAAAAAApCFENRZHkAVTOui0WyHCMwAAAACAChFkicjJ6vaac+5+kZ/o9cuztxXK+pkfbLg/8tzV3PZpdK+4Xz3+VvO1Qt8gAAAAAABpCVGNBfGoOpDUzG0BAAAAAESHIEtkTla3/QDUnaI+1euXig2yeOuv/sXZWgzNuW73Bfczx+8038m9BgAAAAAAxlKrN9YCVWNBPAiyAAAAAAAKR5AlQier21vOuTedc6ezfrofufy13LZZLVx52b39yk9N97dcdI+7L7hXj99qfpB7DQAAAAAATGKFvYUZFVN2dzxHnXZrnwMGAAAAAPEjyBKpk9XtXefcsu8dPO0nfOn8i+6r51/MbS/Cv/YDP+L+zR9qTPQ3dZ9ze5/8XPPa8Z3mUe5FAAAAAAAwqZvsMcxoqcIduJXbAgAAAACIEkGWiJ2sbu9LmGVnmk/5o8+9lttWpJt/5Mfcn33p+tl/o28l9Ly7e/zN5nLuNQAAAAAAMLFavcEzNqwhyAIAAAAAiSDIErmT1e3HJ6vbvlTw/Uk/6euXX8ltK9pbr/xZd+eP/+Twv7XXSujt5mbuNQAAAAAAMK3QQZbF3BZguL1Ou3U49FUAAAAAQFQIsiTiZHV73Tl3xzl3Os4nfuHcZfeN5/5EbnsZfuqrS+4/+fpfdS9cfO6Zv717xTVpJQQAAAAAQCkIsqAINyraiyxwAgAAAICEEGRJyMnq9pYMVB2c9alfv1R+NZashSsvu1/5U/+u+0t/9MfcV65c+X+7L7ifOX6neSv3BwEAAAAAQBGuBt6LBFmMq9UbVf0OHXXarWZuKwAAAAAgWgRZEnOyur0vYZadUZ/8G8+9lttWhZ/5wYb7L7/+7/yV47eaH6R+rAAAAAAAKNH1wDt3ocIgBMqxVNF+pRoLAAAAACSGIEuCTla3H5+sbq845+4O+/Q/WlFboSH2B28GAAAAAAARqSoIgXJU0Z7Kt8jeym0FAAAAAESNIEvCTla3/YqWN/pbDf3oc6+5589dDrVjjv7cn2kc5rYCAAAAAIDYVBGEQHmqOH6bnXbrcW4rAAAAACBqBFkSl2k1dL+3J0K1FRK7uS0AAAAAACBGKxxV026U/OZPaSsEAAAAAGkiyIJeq6F159ybviIKbYUAAAAAAEAFrtfqjUV2tD21eqOKEBLVWAAAAAAgUQRZ8IWT1W1fDWUpYFshR0UWAAAAAACSQlUWm8o+bkeddmsjtxUAAAAAkASCLHiGr84Sco/8uT/ToCILAAAAAADlO1Wyj9dzW6Bard64WkGQhd8LAAAAAEgYQRYMsjdgWxVC/XcBAAAAAEiNloUkC7V6Yzm3FZr5EMt8ie9vr9NuNXNbAQAAAADJIMiCQUJVZaEaCwAAAAAA1ThUtJ9pIWNL2cdrLbcFAAAAAJAUgiwYJFSgZDe3BQAAAAAAlEFTkOUGVVlsqNUb/397d5PbRnKGAbg08N6+gTV9AWt6SzSsrLi0bmD5BLFPkPEJopzA0glGXnoVCQ1vO9IFOtINpBMwaKc4YdwSRVL9R/bzAISNkgyTVVwV3n6/KmTyusU3+7ks8iF9NwEAAOiBIAsP0cgCAAAAu21oD5Oc1FYYojbbWK7LItfOAwAAgCALD+ojUHI/nWSeuAEAAIAOlEU+tCDLmyTNPtZWGYwO2liMFAIAAOAHQRYe0kcji7FCAAAA0K3rge3370ma7ddW6V2SZq9abs35VBa5pl4AAAB+EGShZjrJ+rg4cFkBAAAA3Tof2H6/HOB74r9O4/m04bIscqOlAAAA+JMgC4+5fWS9LRpZAAAAoFtDDI1UI4ZOa6v0JkmzoxDCu5b+//sQwlFtFQAAgFETZOExN4+st0UjCwAAAHQojnLp+kGWVbxP0uzYd6F/cdRTm8Giw7LI+xhxDQAAwIAJsvCYLoMst9NJ5tICAAAAujfUUT5fhFn6laTZq/j9aGuk0IcYpgIAAID/I8jCY7oMsri0AAAAgH4MeYzPSZJmB7VVOtv/atRTbbUZZ2WRGyEFAADAgwRZeIwgCwAAAOy42IhxOdBPWTWBXAizdC9Jsypk8r6l//iyLHJtOwAAADxKkIXHdBlkuaitAAAAAF0ZcjNGFWb5lzFD3Wk5xHIdQjiqrQIAAMACQRYeo5EFAAAARiCOeLkd+Cf9IszSvg5CLIdlkd/VfgIAAAALBFl40HSSdRVkuZ1OMhcYAAAA0K+TLdj/LzFoQcOSNHvVcojlPoRwLMQCAADAKgRZWKaLp7G0sQAAAED/TmPYYOjeJ2l2laTZvu9MM+JeXrQcYqmaWNwBAQAAsBJBFpbpopXFJQYAAAD0LDZl/L4l5/Cmuk9I0uyo9hPWEvfwKu5pG4RYAAAAWJsgC8sIsgAAAMBIlEV+0lE7axNehhD+SNLsvBqL4zu6njhKqDrvP+JetkGIBQAAgI0IsrCMIAsAAACMy/GWfdp31f1Fkmbb9r57k6TZYbyP+WuL7+FWiAUAAIBNCbKwTNtBlvvpJOsiLAMAAACsoCzyixDC1y3bq6pR5EuSZlcxpMEDkjTbrxpsQgj/DCG8rv9GY65DCAdCLAAAAGxKkIVl2g6ZuNAAAACA4fkYx8JsmzdVSCNJswuBlv+JAZbTEMK/Y4NNm65jE8vdAD46AAAAW0qQhWUEWQAAAGBkyiK/iWGWbfV2IdByNNbv708Blve1X2jeWVnkB0IsAAAAPNfebDaziTzq2/e8zS/Ih+nkx4UKAAAAMDBxDE3bDR5duA0hnIQQTscQsojhneOOz+5TWeQntVUAAADYwAubxhNuW5yb3HbjCwAAALC549im2ta9QFeq9//36pWk2dcQQhXQOd+lUEuSZgfxvI46Pq9qBNVxWeTntZ8AAADAhjSysNS37/lFrORt3HSS7dl9AAAAGK4YkKjuBl7u4DF9jZ/toizyrRt/nKTZYQyudB1embuOIRajowEAAGiURhaectNSkOW6tgIAAAAMShVSSNLsYwjhyw6ezLv5+J0kzW5j+0wVbLkqix8P9gxGkmavQghVqOgwvlp56GgNZyGEj2MY1QQAAED3BFl4Slvjf4wVAgAAgC1QFvlpkmb7IYS/7fB5vY6vebAlxIdwbmLApXrdxZBLa+GNhcDK/M/5ayjjne5jgOW09hMAAABoiCALT2nrckbtLAAAAGyJssh/j2GW9yM6szfx9W5xMYZcbhce0rnZ8IGdeVhl/vc3td8YFqOEAAAA6IQgC09p63LCpQcAAABskbLIj2OIY0xhlse8XmhJ6XvMTxc+V2Gm3f+YAAAADMEvToEnaGQBAAAAfqjCLCGEM7sxGlULy29CLAAAAHRpbzab2XCW+vY9b/xLMp1ke7VFAAAAYCskaXaqmWXnaWEBAACgFxpZ6MOlXQcAAIDtFZtZPjnCnVTd2/wqxAIAAEBfBFlYRdPBk5vaCgAAALBVyiI/CSF8CCHcO7mdUJ3jh7LID8sid3cDAABAbwRZ6IPLEAAAANgBZZFXI4YOQwjXznOrfQ4h7MfzBAAAgF4JsrCKq4Z36aK2AgAAAGylssivYpjlzAlunbP5GKGyyO/GvhkAAAAMwwvnwAqavsjQyAIAAAA7JIYgjpM0Ow8hVK0eL53voFVjpKvwioeNAAAAGByNLKyi0UaW6SQTZAEAAIAdVBZ5FWQ5iEEJhqc6l7+URX4oxAIAAMBQaWRhFU02spiZDQAAADusLPLqAZbDJM2OtLMMhgYWAAAAtoZGFlbRZIOKNhYAAAAYgdjOsh9C+Ifz7s1XDSwAAABsG0EWntTwKKBGxxQBAAAAw1UW+V1Z5B9DCL8aN9SZ+xDCWbXnZZEfCbAAAACwbYwWYlX3DVUBC7IAAADAyCyMGzqsRtyEEN76DjTuNoRwUo1zqgJEO/bZAAAAGBFBFlZ11dAlk4sUAAAAGKnYDjIPtFRNLe98F56levDoPIZXNK8AAACwE/Zms5mT5Enfvv+4DHl2kGU6yfZqiwAAAMAoJWm2Hxtajhpqgh2LrzHAcq59BQAAgF2jkYVVNRFkua2tAAAAAKMVRw4dJ2n2KoZZqpaWN74RDxJeAQAAYBQEWejSjd0GAAAAfhaDGafVK7a0VKGW45GHWuZjgy6EVwAAABgTQRZW1UQI5aq2AgAAALAgtrScVK+FUMthCOHdCPbpciG44h4FAACAURJkYVVNBFk8OQQAAACsbDHUUv2bJM0OY6ileh2EEF5u8W7exod+quDKVVnkF7XfAAAAgBESZGFVTYRQXMgAAAAAG4thjz/vF2Jjy0F8VeGWVwMdR3QZHxK6WQiueOAHAAAAHrA3m83qZAx54QAAAh1JREFUq/CAb9/z535ZfptOMrW4AAAAQKuSNDuIoZb5n/O/hxbCLtcLDwDNQzZXcU1gBQAAANYkyMLKnhtkmU6yvdoiAAAAQM9is8v+Cu/irixyD+kAAABAi4wWYh1VDe7bDXfstrYCAAAAMABlkc/H/gAAAAA9+8UB0BGXQQAAAAAAAADAUoIsrOM5YRS1uwAAAAAAAADAUoIsrOM5QZa72goAAAAAAAAAwAJBFrqikQUAAAAAAAAAWEqQhXVcPGO3NLIAAAAAAAAAAEsJstAVjSwAAAAAAAAAwFKCLKzjZtPdmk4yjSwAAAAAAAAAwFKCLKxsOsk2DbJc1lYAAAAAAAAAAH4iyAIAAAAAAAAAwCAIsrCuTdpVrmorAAAAAAAAAAA/EWShC3d2GQAAAAAAAAB4iiAL67rZ4N9oZAEAAAAAAAAAniTIwro2CbJoZAEAAAAAAAAAniTIQhc2Cb8AAAAAAAAAACMjyMK61h4TNJ1kgiwAAAAAAAAAwJMEWVjXumOC7msrAAAAAAAAAAAPeFFfgqWqdpXPD/zCfnz9bO0GFwAAAAAAAABgnPZms5mjBwAAAAAAAACgd0YLAQAAAAAAAAAwCIIsAAAAAAAAAAAMgiALAAAAAAAAAACDIMgCAAAAAAAAAMAgCLIAAAAAAAAAADAIgiwAAAAAAAAAAAyCIAsAAAAAAAAAAIMgyAIAAAAAAAAAQP9CCP8B5FTwcKL6iD4AAAAASUVORK5CYII=;" vertex="1" parent="1">
                    <mxGeometry x="275" y="165.49" width="126" height="34.02" as="geometry"/>
                </mxCell>
                <mxCell id="4" value="" style="outlineConnect=0;dashed=0;verticalLabelPosition=bottom;verticalAlign=top;align=center;html=1;shape=mxgraph.aws3.rds;fillColor=#2E73B8;gradientColor=none;" vertex="1" parent="1">
                    <mxGeometry x="445" y="148" width="60" height="61" as="geometry"/>
                </mxCell>
                <mxCell id="5" value="" style="outlineConnect=0;dashed=0;verticalLabelPosition=bottom;verticalAlign=top;align=center;html=1;shape=mxgraph.aws3.dynamo_db;fillColor=#2E73B8;gradientColor=none;" vertex="1" parent="1">
                    <mxGeometry x="555" y="140" width="72" height="81" as="geometry"/>
                </mxCell>
                <mxCell id="6" value="" style="outlineConnect=0;dashed=0;verticalLabelPosition=bottom;verticalAlign=top;align=center;html=1;shape=mxgraph.aws3.rds;fillColor=#2E73B8;gradientColor=none;" vertex="1" parent="1">
                    <mxGeometry x="450" y="560" width="60" height="61" as="geometry"/>
                </mxCell>
                <mxCell id="7" value="" style="fontColor=#0066CC;verticalAlign=top;verticalLabelPosition=bottom;labelPosition=center;align=center;html=1;outlineConnect=0;fillColor=#CCCCCC;strokeColor=#6881B3;gradientColor=none;gradientDirection=north;strokeWidth=2;shape=mxgraph.networks.pc;" vertex="1" parent="1">
                    <mxGeometry x="665" y="143.5" width="100" height="70" as="geometry"/>
                </mxCell>
                <mxCell id="9" value="" style="outlineConnect=0;dashed=0;verticalLabelPosition=bottom;verticalAlign=top;align=center;html=1;shape=mxgraph.aws3.cloudsearch;fillColor=#F58534;gradientColor=none;" vertex="1" parent="1">
                    <mxGeometry x="550.5" y="544" width="76.5" height="93" as="geometry"/>
                </mxCell>
                <mxCell id="13" value="" style="outlineConnect=0;dashed=0;verticalLabelPosition=bottom;verticalAlign=top;align=center;html=1;shape=mxgraph.aws3.user;fillColor=#D2D3D3;gradientColor=none;" vertex="1" parent="1">
                    <mxGeometry x="692.5" y="70" width="45" height="63" as="geometry"/>
                </mxCell>
                <mxCell id="28" style="edgeStyle=orthogonalEdgeStyle;rounded=0;orthogonalLoop=1;jettySize=auto;html=1;" edge="1" parent="1" source="14" target="2">
                    <mxGeometry relative="1" as="geometry"/>
                </mxCell>
                <mxCell id="14" value="" style="fontColor=#0066CC;verticalAlign=top;verticalLabelPosition=bottom;labelPosition=center;align=center;html=1;outlineConnect=0;fillColor=#CCCCCC;strokeColor=#6881B3;gradientColor=none;gradientDirection=north;strokeWidth=2;shape=mxgraph.networks.pc;" vertex="1" parent="1">
                    <mxGeometry x="200" y="351.5" width="100" height="70" as="geometry"/>
                </mxCell>
                <mxCell id="15" value="" style="outlineConnect=0;dashed=0;verticalLabelPosition=bottom;verticalAlign=top;align=center;html=1;shape=mxgraph.aws3.user;fillColor=#D2D3D3;gradientColor=none;" vertex="1" parent="1">
                    <mxGeometry x="140" y="351" width="45" height="63" as="geometry"/>
                </mxCell>
                <mxCell id="16" value="手入力" style="text;html=1;strokeColor=none;fillColor=none;align=center;verticalAlign=middle;whiteSpace=wrap;rounded=0;" vertex="1" parent="1">
                    <mxGeometry x="697.5" y="230" width="40" height="20" as="geometry"/>
                </mxCell>
                <mxCell id="17" value="DynamoDB" style="text;html=1;strokeColor=none;fillColor=none;align=center;verticalAlign=middle;whiteSpace=wrap;rounded=0;" vertex="1" parent="1">
                    <mxGeometry x="576.5" y="230" width="40" height="20" as="geometry"/>
                </mxCell>
                <mxCell id="18" value="RDS" style="text;html=1;strokeColor=none;fillColor=none;align=center;verticalAlign=middle;whiteSpace=wrap;rounded=0;" vertex="1" parent="1">
                    <mxGeometry x="460" y="221" width="40" height="20" as="geometry"/>
                </mxCell>
                <mxCell id="21" value="" style="shape=flexArrow;endArrow=classic;html=1;width=66;endSize=9.76;" edge="1" parent="1">
                    <mxGeometry width="50" height="50" relative="1" as="geometry">
                        <mxPoint x="520" y="270" as="sourcePoint"/>
                        <mxPoint x="519.5" y="330" as="targetPoint"/>
                    </mxGeometry>
                </mxCell>
                <mxCell id="22" value="" style="shape=flexArrow;endArrow=classic;html=1;width=66;endSize=9.76;" edge="1" parent="1">
                    <mxGeometry width="50" height="50" relative="1" as="geometry">
                        <mxPoint x="520" y="470" as="sourcePoint"/>
                        <mxPoint x="519.5" y="530" as="targetPoint"/>
                    </mxGeometry>
                </mxCell>
                <mxCell id="24" value="様々なシステムの&lt;br&gt;様々なデータ" style="text;html=1;strokeColor=none;fillColor=none;align=center;verticalAlign=middle;whiteSpace=wrap;rounded=0;" vertex="1" parent="1">
                    <mxGeometry x="270" y="70" width="100" height="50" as="geometry"/>
                </mxCell>
                <mxCell id="25" value="RDS" style="text;html=1;strokeColor=none;fillColor=none;align=center;verticalAlign=middle;whiteSpace=wrap;rounded=0;" vertex="1" parent="1">
                    <mxGeometry x="460" y="630" width="40" height="20" as="geometry"/>
                </mxCell>
                <mxCell id="27" value="CloudSearch" style="text;html=1;strokeColor=none;fillColor=none;align=center;verticalAlign=middle;whiteSpace=wrap;rounded=0;" vertex="1" parent="1">
                    <mxGeometry x="568.75" y="650" width="40" height="20" as="geometry"/>
                </mxCell>
                <mxCell id="29" value="データの&lt;br&gt;閲覧・編集・検索" style="text;html=1;strokeColor=none;fillColor=none;align=center;verticalAlign=middle;whiteSpace=wrap;rounded=0;" vertex="1" parent="1">
                    <mxGeometry x="330" y="394" width="110" height="36" as="geometry"/>
                </mxCell>
            </root>
        </mxGraphModel>
    </diagram>
</mxfile>